<?xml version="1.0" encoding="utf-8"?>
<!-- Generator: Adobe Illustrator 27.5.0, SVG Export Plug-In . SVG Version: 6.00 Build 0)  -->
<svg version="1.1" id="Layer_1" xmlns="http://www.w3.org/2000/svg" xmlns:xlink="http://www.w3.org/1999/xlink" x="0px" y="0px"
	 viewBox="0 0 500 350" style="enable-background:new 0 0 500 350;" xml:space="preserve">
<rect x="0.002" style="fill:#FFFFFF;" width="499.998" height="350"/>
<path style="fill-rule:evenodd;clip-rule:evenodd;fill:#473D2E;" d="M482.982,204.571c-0.679,2.127-1.872,4.143-3.521,5.708
	c-1.626,1.589-3.749,2.606-5.83,3.075c-2.109,0.465-4.176,0.399-6.071,0.089c-3.906-0.595-7.069-2.48-9.546-4.395
	c-2.499-1.946-4.417-4.046-6.08-5.979c-3.298-3.906-5.505-7.307-7.228-9.927c-3.284-5.118-4.892-7.622-4.892-7.622
	s0.52,0.455,1.594,1.477c1.059,1.055,2.634,2.709,4.687,5.092c2.071,2.364,4.617,5.472,8.013,9.002
	c1.709,1.737,3.623,3.618,5.923,5.281c2.294,1.658,4.956,3.159,8.082,3.623c3.136,0.558,6.615,0.098,9.072-2.159
	c2.485-2.216,3.734-5.988,3.669-9.727c-0.032-3.758-1.323-7.576-3.59-10.521c-1.142-1.469-2.546-2.709-4.069-3.646
	c-1.523-0.925-3.21-1.506-4.845-1.427c-1.64,0.005-3.173,0.711-4.357,1.729c-1.185,1.04-2.053,2.383-2.513,3.776
	c-0.989,2.806-0.474,5.686,0.738,7.563c1.212,1.918,2.829,2.963,3.935,3.553c0.553,0.316,1.026,0.475,1.328,0.609
	c0.307,0.13,0.465,0.19,0.465,0.19s-0.158-0.052-0.474-0.158c-0.33-0.107-0.809-0.224-1.394-0.511
	c-1.152-0.512-2.885-1.44-4.307-3.387c-1.439-1.899-2.238-4.984-1.352-8.18c0.428-1.599,1.282-3.178,2.597-4.497
	c1.311-1.296,3.163-2.285,5.226-2.434c2.049-0.219,4.139,0.395,5.965,1.37c1.82,0.984,3.502,2.318,4.9,3.939
	c2.792,3.256,4.474,7.543,4.691,11.929C483.911,200.209,483.684,202.443,482.982,204.571z M441.748,190.375l-0.938-2.196
	l-1.092-2.077l-1.106-2.066l-1.249-1.988c-3.345-5.305-7.479-10.117-12.097-14.358c-9.243-8.463-20.429-14.734-32.144-17.898
	c-1.478-0.339-2.935-0.762-4.413-1.022c-1.491-0.227-2.959-0.543-4.436-0.701c-1.482-0.116-2.959-0.283-4.423-0.358
	c-1.449-0.046-2.885-0.088-4.319-0.13c-1.436-0.042-2.857-0.093-4.265-0.13c-1.333,0.014-2.643,0.098-3.958,0.144
	c4.733-2.773,9.351-6.531,13.438-10.962c6.875-7.498,11.214-15.854,13.713-24.09c1.672-5.653,3.507-11.641,3.419-17.177
	c0.027-2.309-0.8-1.872-1.747-0.85c-0.692,0.734-1.449,1.788-2.02,2.396c-0.701,0.753-1.519,1.412-2.337,2.025
	c-0.826,0.604-1.658,1.189-2.476,1.752c-1.645,1.124-3.433,2.104-4.919,3.368c-6.294,4.868-13.494,9.085-20.164,13.489
	c-5.63,3.725-12.031,8.589-16.37,14c-4.761,5.932-4.733,10.145-6.262,15.296c-0.056,0.162-0.107,0.348-0.176,0.524
	c1.397-1.551,2.87-3.126,4.436-4.64c1.872-1.858,3.926-3.572,5.899-5.36l0.66-0.53c-0.023-0.116-0.052-0.213-0.042-0.348
	c0.106-2.002,1.077-3.828,2.359-5.523c1.231-1.705,2.801-3.265,4.051-4.752c0.236-0.274,0.659,0.042,0.465,0.334
	c-0.878,1.343-2.022,2.592-2.625,4.093c-0.432,1.059-0.836,2.443-1.134,3.744c0.832-0.655,1.649-1.3,2.44-1.956
	c2.085-1.514,4.147-3.005,6.131-4.445c1.821-1.226,3.567-2.411,5.254-3.544c-0.088-0.775,0.061-1.755,0.209-2.267
	c0.873-2.871,3.953-5.091,6.439-6.429c0.069-0.033,0.148,0.037,0.106,0.107c-0.064,0.186-0.711,1.24-1.556,2.596
	c-0.428,0.692-0.901,1.45-1.375,2.216c-0.502,0.743-1.004,1.496-1.454,2.17c1.189-0.757,2.364-1.473,3.4-2.211
	c1.593-1.083,3.079-2.063,4.408-2.899c1.31-0.84,2.513-1.546,3.438-2.192c1.867-1.277,2.959-1.997,2.959-1.997
	s-0.888,0.999-2.458,2.671c-0.817,0.803-1.849,1.732-3.015,2.829c-1.161,1.064-2.489,2.276-3.953,3.549
	c-1.407,1.347-3.145,2.536-4.789,4.018c-1.727,1.408-3.502,2.913-5.448,4.348c-1.306,1.055-2.62,2.188-4.009,3.252
	c0.256-0.005,0.511,0,0.757,0.023c1.157,0.112,2.29,0.232,3.442,0.307c2.467,0.144,5.086,0.135,7.59-0.864
	c0.209-0.084,0.316,0.176,0.14,0.297c-1.835,1.324-4.725,2.787-7.525,3.517c-2.819,0.683-5.546,0.632-7.153-1.073
	c-1.649,1.347-3.316,2.694-4.951,4.088c-1.933,1.695-3.953,3.298-5.77,5.059c-1.821,1.723-3.679,3.377-5.323,5.105
	c-4.822,1.087-9.379,2.415-13.666,3.939c-2.192,0.66-4.25,1.561-6.289,2.364c-2.025,0.822-4.037,1.565-5.909,2.508
	c-0.966,0.46-1.923,0.911-2.861,1.356c0.544-0.557,1.097-1.147,1.658-1.788c1.37-1.603,2.811-3.47,4.041-5.774
	c1.203-2.299,2.29-5.036,2.532-8.245c0.236-3.275-0.66-6.708-2.36-9.736c-1.727-3.024-4.273-5.755-7.538-7.483
	c-1.636-0.836-3.438-1.426-5.31-1.552c-1.877-0.121-3.758,0.209-5.426,0.915c-1.668,0.72-3.103,1.765-4.311,2.94
	c-1.222,1.212-2.165,2.615-2.829,4.069c-1.333,2.898-1.686,5.974-1.11,8.616c0.293,1.319,0.874,2.518,1.654,3.424
	c0.799,0.91,1.793,1.477,2.75,1.751c1.928,0.548,3.493,0.195,4.505-0.023c0.502-0.112,0.888-0.256,1.152-0.344
	c0.26-0.079,0.395-0.121,0.395-0.121s-0.135,0.028-0.4,0.084c-0.278,0.056-0.664,0.172-1.184,0.228
	c-1.008,0.126-2.582,0.32-4.301-0.335c-0.836-0.334-1.663-0.911-2.285-1.747c-0.623-0.85-1.036-1.923-1.194-3.117
	c-0.339-2.378,0.214-5.165,1.579-7.636c0.679-1.236,1.575-2.388,2.671-3.321c1.134-0.957,2.402-1.756,3.786-2.244
	c1.38-0.483,2.853-0.646,4.287-0.464c1.449,0.172,2.861,0.715,4.153,1.463c2.582,1.528,4.654,3.92,6.011,6.494
	c1.365,2.592,2.002,5.402,1.83,7.887c-0.19,2.55-1.045,4.905-2.03,6.977c-1.008,2.067-2.211,3.86-3.367,5.449
	c-2.276,3.085-4.464,5.374-6.22,7.163c-0.316,0.172-0.642,0.353-0.967,0.525c-13.313,7.395-22.904,15.059-30.044,21.307
	c-7.107,6.313-11.883,11.199-14.901,14.465c-2.987,3.279-4.386,4.826-4.386,4.826s1.528-1.421,4.771-4.436
	c1.115-1.046,2.477-2.286,4.056-3.693c3.094-1.059,6.359-1.709,9.662-2.034c4.38-0.479,8.807-0.354,13.146-0.219l1.389,0.098
	c0.079-0.093,0.158-0.181,0.307-0.274c4.525-2.652,12.639-2.043,18.868-2.029c0.595,0,0.762,0.534,0.2,0.58
	c-2.532,0.177-5.245,0.153-7.6,0.679c-1.668,0.367-3.642,0.979-5.384,1.635c1.672,0.182,3.358,0.367,5.026,0.548
	c4.124,0.609,8.175,1.199,12.091,1.774c3.488,0.563,6.819,1.134,10.015,1.584c0.753-0.59,2.002-1.143,2.723-1.379
	c4.171-1.357,10.153-0.78,14.427-0.316c0.116,0.01,0.126,0.116,0.005,0.148c-0.273,0.079-2.127,0.544-4.58,0.994
	c-2.447,0.46-5.514,0.901-8.059,1.189c2.201,0.312,4.348,0.613,6.35,0.794c3.038,0.316,5.815,0.446,8.254,0.632
	c2.43,0.158,4.576,0.186,6.341,0.131c0.888-0.01,1.677-0.042,2.355-0.079c0.683-0.037,1.277-0.065,1.751-0.111
	c0.942-0.084,1.444-0.126,1.444-0.126s-0.521,0.13-1.486,0.367c-0.957,0.228-2.378,0.534-4.194,0.804
	c-1.803,0.255-4.004,0.506-6.536,0.632c-2.503,0.069-5.374,0.231-8.473,0.13c-3.094-0.037-6.415-0.349-9.945-0.604
	c-3.53-0.26-7.236-0.654-11.064-1.17c-2.671-0.307-5.421-0.618-8.203-0.934c0.307,0.195,0.604,0.39,0.869,0.595
	c1.24,0.947,2.434,1.918,3.706,2.852c2.694,1.979,5.746,3.967,9.713,5.193c0.325,0.102,0.168,0.349-0.176,0.302
	c-7.107-0.998-19.496-4.887-19.714-9.587c-3.392-0.325-6.801-0.665-10.233-0.855c-4.093-0.176-8.236-0.376-12.24-0.009
	c-3.98,0.339-7.942,0.896-11.385,2.267c-2.652,0.966-4.929,2.364-6.745,4.037c2.504-1.496,5.003-1.882,7.177-1.761
	c2.192,0.116,4.116,0.701,5.899,1.421c3.591,1.468,6.643,3.433,11.148,4.813c5.434,1.691,11.738,3.261,18.669,4.45
	c6.921,1.18,14.45,1.97,22.152,1.928c8.008-0.023,15.742-0.962,22.975-3.033c7.223-2.049,13.935-5.291,19.468-9.644
	c1.904-1.458,3.716-3.107,5.448-4.816c1.71-1.724,3.275-3.591,4.696-5.5c2.764-3.888,4.831-8.013,5.992-12.035
	c0.948-3.419-0.144-2.699-1.584-1.152c-1.045,1.129-2.396,2.652-3.372,3.479c-2.416,2.081-5.031,3.563-7.669,4.719
	c-2.644,1.157-5.305,1.988-8.027,2.829c-10.939,3.372-23.536,1.899-36.241-0.037c-5.369-0.809-11.297-1.709-17.349-2.364
	c-6.058-0.65-12.249-1.031-17.995-0.697c-6.304,0.362-10.722,1.561-14.34,3.122c-2.935,1.305-5.402,2.782-8.004,4.57
	c2.689-2.369,5.965-5.151,9.918-8.347c7.352-5.872,17.107-13.09,30.328-20.058c1.658-0.85,3.344-1.761,5.1-2.629
	c1.784-0.804,3.601-1.635,5.473-2.476c1.844-0.897,3.813-1.593,5.806-2.374c2.002-0.757,4.022-1.616,6.174-2.229
	c7.106-2.453,14.989-4.366,23.517-5.537c0.952-0.051,1.933-0.153,2.917-0.367c0.665-0.074,1.301-0.158,1.965-0.218
	c0.65-0.079,1.297-0.153,1.951-0.223l0.994-0.116l0.999-0.042c1.328-0.061,2.671-0.121,4.032-0.172
	c1.36-0.051,2.722-0.144,4.087-0.167c1.385,0.037,2.773,0.074,4.177,0.111c1.397,0.033,2.81,0.07,4.217,0.107
	c1.412,0.065,2.792,0.218,4.204,0.316c1.407,0.144,2.787,0.427,4.199,0.632c1.407,0.237,2.792,0.627,4.199,0.943
	c11.162,2.908,22.009,8.816,31.011,16.843c4.496,4.018,8.538,8.589,11.813,13.619l1.235,1.891l1.083,1.965l1.077,1.965l0.896,2.002
	c1.082,2.726,1.854,5.579,2.327,8.473c0.423,2.913,0.618,5.839,0.581,8.756c-0.103,2.913-0.33,5.798-0.841,8.622
	c-0.521,2.81-1.161,5.583-2.109,8.217c-0.905,2.647-1.987,5.193-3.372,7.53c-1.343,2.346-2.959,4.478-4.789,6.354
	c-1.844,1.857-3.888,3.465-6.029,4.816c-2.118,1.38-4.408,2.379-6.693,3.149c-2.3,0.78-4.641,1.194-6.944,1.314
	c-2.295,0.167-4.543-0.106-6.652-0.58c-2.127-0.451-4.083-1.296-5.848-2.309c-3.508-2.059-6.201-4.91-7.938-7.879
	c-1.729-2.986-2.481-6.131-2.337-8.849c0.107-2.74,1.105-4.975,2.16-6.55c1.077-1.598,2.197-2.605,2.959-3.266
	c0.789-0.617,1.212-0.934,1.212-0.934s-0.423,0.303-1.244,0.906c-0.767,0.646-1.924,1.621-3.043,3.205
	c-1.119,1.57-2.184,3.813-2.369,6.614c-0.209,2.787,0.483,6.029,2.189,9.138c1.718,3.093,4.408,6.089,7.998,8.305
	c1.803,1.092,3.823,2.017,6.034,2.536c2.192,0.549,4.524,0.883,6.931,0.763c2.397-0.07,4.863-0.451,7.27-1.213
	c2.406-0.762,4.808-1.751,7.07-3.14c2.252-1.361,4.417-2.996,6.396-4.91c1.951-1.923,3.712-4.153,5.17-6.587
	c1.496-2.415,2.681-5.049,3.675-7.775c1.026-2.718,1.756-5.574,2.336-8.483c0.591-2.912,0.879-5.908,1.036-8.933
	c0.103-3.033-0.056-6.104-0.45-9.169C443.629,196.382,442.867,193.325,441.748,190.375z M263.859,130.101
	c0.097,0.33,0.227,0.673,0.371,1.026c0.148,0.358,0.251,0.79,0.418,1.203c0.265,0.859,0.738,1.672,1.022,2.704
	c0.167,0.497,0.348,1.008,0.553,1.519c0.209,0.506,0.315,1.096,0.506,1.658c0.395,1.105,0.618,2.355,0.947,3.614
	c0.512,2.587,0.901,5.449,1.055,8.547c0.093,3.093,0.116,6.113,0.145,8.974c-0.052,1.421,0,2.815-0.079,4.125
	c-0.019,0.664-0.028,1.31-0.037,1.928c-0.042,0.627-0.07,1.231-0.108,1.802c-0.022,1.18-0.143,2.234-0.199,3.191
	c-0.032,0.488-0.061,0.938-0.079,1.361c-0.051,0.413-0.088,0.79-0.13,1.138c-0.126,1.38-0.167,2.207-0.167,2.207
	s0.641-0.46,1.736-1.407c0.266-0.247,0.572-0.516,0.896-0.809c0.303-0.302,0.632-0.646,0.975-1.026
	c0.692-0.757,1.501-1.63,2.221-2.685c0.381-0.52,0.767-1.078,1.161-1.672c0.386-0.595,0.734-1.24,1.105-1.909
	c0.771-1.333,1.38-2.848,2.012-4.46c1.124-3.266,1.895-7.093,1.756-11.181c-0.167-4.097-1.073-8.018-2.443-11.362
	c-0.762-1.659-1.491-3.206-2.448-4.534c-0.46-0.664-0.85-1.324-1.361-1.886c-0.492-0.566-0.975-1.096-1.449-1.588
	c-0.896-1.018-1.969-1.71-2.833-2.336c-0.864-0.632-1.742-1.018-2.49-1.259c-1.5-0.506-2.503-0.451-3.01,0.139
	C263.403,127.709,263.44,128.777,263.859,130.101z M190.27,192.889c6.229-0.014,14.354-0.623,18.869,2.029
	c0.153,0.094,0.232,0.182,0.312,0.274l1.389-0.098c4.339-0.135,8.766-0.26,13.145,0.219c3.303,0.325,6.563,0.976,9.662,2.034
	c1.579,1.407,2.935,2.647,4.059,3.693c3.247,3.015,4.775,4.436,4.775,4.436s-1.412-1.547-4.39-4.826
	c-3.024-3.266-7.8-8.152-14.906-14.465c-7.14-6.248-16.736-13.912-30.045-21.307c-0.315-0.172-0.654-0.353-0.971-0.525
	c-1.751-1.788-3.939-4.078-6.215-7.163c-1.148-1.589-2.36-3.382-3.368-5.449c-0.976-2.072-1.831-4.427-2.016-6.977
	c-0.195-2.485,0.451-5.295,1.812-7.887c1.361-2.574,3.428-4.966,6.011-6.494c1.292-0.748,2.708-1.291,4.157-1.463
	c1.444-0.181,2.913-0.019,4.292,0.464c1.37,0.488,2.657,1.287,3.781,2.244c1.092,0.934,1.988,2.085,2.671,3.321
	c1.361,2.471,1.914,5.258,1.589,7.636c-0.167,1.194-0.59,2.267-1.194,3.117c-0.631,0.836-1.458,1.412-2.294,1.747
	c-1.719,0.655-3.298,0.46-4.302,0.335c-0.524-0.056-0.91-0.172-1.184-0.228c-0.265-0.056-0.404-0.084-0.404-0.084
	s0.14,0.042,0.404,0.121c0.261,0.088,0.642,0.232,1.157,0.344c1.003,0.218,2.582,0.571,4.505,0.023
	c0.943-0.274,1.946-0.841,2.736-1.751c0.79-0.906,1.37-2.105,1.658-3.424c0.576-2.643,0.219-5.718-1.114-8.616
	c-0.66-1.454-1.599-2.857-2.829-4.069c-1.213-1.175-2.639-2.22-4.31-2.94c-1.663-0.706-3.545-1.036-5.421-0.915
	c-1.863,0.125-3.679,0.715-5.314,1.552c-3.261,1.728-5.811,4.459-7.525,7.483c-1.705,3.029-2.601,6.461-2.374,9.736
	c0.246,3.21,1.333,5.946,2.532,8.245c1.235,2.304,2.675,4.171,4.041,5.774c0.567,0.641,1.12,1.231,1.658,1.788
	c-0.934-0.446-1.891-0.896-2.857-1.356c-1.877-0.943-3.883-1.686-5.909-2.508c-2.039-0.804-4.102-1.705-6.29-2.364
	c-4.283-1.523-8.849-2.852-13.666-3.939c-1.649-1.728-3.503-3.382-5.318-5.105c-1.821-1.761-3.842-3.363-5.779-5.059
	c-1.635-1.394-3.302-2.741-4.947-4.088c-1.598,1.705-4.338,1.756-7.149,1.073c-2.796-0.729-5.69-2.192-7.521-3.517
	c-0.181-0.121-0.079-0.381,0.126-0.297c2.504,0.998,5.138,1.008,7.59,0.864c1.156-0.074,2.29-0.195,3.446-0.307
	c0.242-0.023,0.502-0.028,0.753-0.023c-1.384-1.064-2.699-2.197-4.009-3.252c-1.942-1.435-3.73-2.94-5.444-4.348
	c-1.644-1.482-3.381-2.671-4.794-4.018c-1.445-1.272-2.787-2.485-3.949-3.549c-1.156-1.096-2.192-2.025-3.01-2.829
	c-1.579-1.672-2.467-2.671-2.467-2.671s1.106,0.72,2.959,1.997c0.938,0.646,2.127,1.352,3.452,2.192
	c1.319,0.836,2.801,1.816,4.408,2.899c1.026,0.738,2.206,1.454,3.391,2.211c-0.451-0.674-0.956-1.426-1.463-2.17
	c-0.469-0.766-0.943-1.523-1.371-2.216c-0.845-1.356-1.486-2.411-1.556-2.596c-0.028-0.07,0.042-0.14,0.112-0.107
	c2.494,1.338,5.569,3.558,6.438,6.429c0.148,0.511,0.297,1.491,0.204,2.267c1.686,1.134,3.442,2.318,5.258,3.544
	c1.993,1.44,4.042,2.931,6.132,4.445c0.79,0.655,1.616,1.301,2.448,1.956c-0.307-1.3-0.711-2.685-1.148-3.744
	c-0.599-1.5-1.747-2.75-2.62-4.093c-0.2-0.292,0.237-0.608,0.46-0.334c1.263,1.486,2.819,3.047,4.055,4.752
	c1.282,1.696,2.248,3.521,2.369,5.523c0,0.135-0.032,0.232-0.051,0.348l0.669,0.53c1.965,1.788,4.023,3.502,5.885,5.36
	c1.57,1.514,3.043,3.089,4.441,4.64c-0.061-0.176-0.121-0.362-0.177-0.524c-1.523-5.152-1.501-9.365-6.253-15.296
	c-4.352-5.412-10.739-10.275-16.378-14c-6.68-4.404-13.875-8.622-20.155-13.489c-1.496-1.264-3.284-2.244-4.928-3.368
	c-0.809-0.562-1.649-1.148-2.467-1.752c-0.827-0.613-1.644-1.272-2.346-2.025c-0.571-0.608-1.333-1.663-2.011-2.396
	c-0.957-1.022-1.789-1.459-1.761,0.85c-0.084,5.537,1.761,11.524,3.424,17.177c2.508,8.236,6.833,16.592,13.717,24.09
	c4.083,4.431,8.71,8.189,13.438,10.962c-1.31-0.046-2.643-0.13-3.962-0.144c-1.408,0.037-2.829,0.088-4.269,0.13
	c-1.431,0.042-2.871,0.084-4.315,0.13c-1.454,0.075-2.945,0.242-4.422,0.358c-1.477,0.158-2.95,0.474-4.436,0.701
	c-1.477,0.26-2.931,0.683-4.417,1.022c-11.715,3.164-22.887,9.435-32.135,17.898c-4.627,4.241-8.756,9.053-12.101,14.358
	l-1.25,1.988l-1.096,2.066l-1.105,2.077l-0.925,2.196c-1.133,2.95-1.89,6.007-2.336,9.064c-0.395,3.065-0.553,6.136-0.45,9.169
	c0.153,3.024,0.436,6.02,1.031,8.933c0.59,2.908,1.309,5.765,2.336,8.483c0.999,2.726,2.178,5.36,3.679,7.775
	c1.458,2.434,3.214,4.664,5.175,6.587c1.983,1.914,4.129,3.549,6.401,4.91c2.248,1.389,4.664,2.378,7.061,3.14
	c2.416,0.762,4.873,1.143,7.279,1.213c2.397,0.12,4.743-0.214,6.921-0.763c2.206-0.52,4.227-1.444,6.034-2.536
	c3.591-2.216,6.29-5.212,7.994-8.305c1.705-3.108,2.406-6.35,2.193-9.138c-0.19-2.801-1.254-5.044-2.369-6.614
	c-1.115-1.584-2.276-2.56-3.047-3.205c-0.808-0.604-1.231-0.906-1.231-0.906s0.414,0.316,1.203,0.934
	c0.757,0.66,1.881,1.668,2.945,3.266c1.078,1.575,2.062,3.81,2.169,6.55c0.149,2.718-0.599,5.862-2.336,8.849
	c-1.732,2.969-4.427,5.82-7.943,7.879c-1.761,1.013-3.698,1.857-5.839,2.309c-2.109,0.474-4.362,0.747-6.657,0.58
	c-2.285-0.12-4.645-0.534-6.93-1.314c-2.295-0.77-4.585-1.77-6.708-3.149c-2.142-1.352-4.171-2.959-6.025-4.816
	c-1.83-1.877-3.451-4.009-4.794-6.354c-1.366-2.337-2.462-4.883-3.368-7.53c-0.938-2.634-1.588-5.407-2.104-8.217
	c-0.521-2.824-0.739-5.709-0.836-8.622c-0.051-2.917,0.158-5.843,0.572-8.756c0.483-2.894,1.245-5.746,2.341-8.473l0.883-2.002
	l1.087-1.965l1.073-1.965l1.236-1.891c3.279-5.03,7.316-9.601,11.808-13.619c9.007-8.027,19.854-13.936,31.016-16.843
	c1.407-0.316,2.801-0.706,4.199-0.943c1.407-0.205,2.801-0.488,4.199-0.632c1.412-0.098,2.801-0.251,4.199-0.316
	c1.422-0.037,2.834-0.074,4.223-0.107c1.398-0.037,2.792-0.074,4.171-0.111c1.37,0.023,2.741,0.116,4.087,0.167
	c1.366,0.051,2.708,0.111,4.037,0.172l1.003,0.042l0.989,0.116c0.646,0.07,1.301,0.144,1.96,0.223
	c0.65,0.06,1.301,0.144,1.951,0.218c0.998,0.213,1.96,0.316,2.931,0.367c8.52,1.171,16.393,3.085,23.509,5.537
	c2.146,0.613,4.162,1.473,6.169,2.229c1.993,0.781,3.967,1.477,5.811,2.374c1.872,0.84,3.693,1.672,5.482,2.476
	c1.747,0.869,3.433,1.779,5.096,2.629c13.215,6.967,22.965,14.186,30.328,20.058c3.948,3.195,7.223,5.978,9.922,8.347
	c-2.615-1.788-5.077-3.266-8.018-4.57c-3.604-1.561-8.036-2.76-14.335-3.122c-5.751-0.334-11.952,0.047-17.981,0.697
	c-6.066,0.655-11.984,1.556-17.358,2.364c-12.709,1.937-25.312,3.409-36.246,0.037c-2.722-0.841-5.384-1.672-8.026-2.829
	c-2.643-1.156-5.254-2.638-7.674-4.719c-0.976-0.827-2.318-2.351-3.373-3.479c-1.435-1.547-2.532-2.267-1.575,1.152
	c1.152,4.022,3.224,8.147,5.983,12.035c1.421,1.909,2.992,3.776,4.706,5.5c1.723,1.709,3.54,3.358,5.444,4.816
	c5.533,4.353,12.245,7.595,19.463,9.644c7.237,2.071,14.976,3.01,22.975,3.033c7.702,0.042,15.236-0.748,22.162-1.928
	c6.926-1.189,13.229-2.759,18.659-4.45c4.506-1.38,7.563-3.345,11.162-4.813c1.783-0.72,3.697-1.305,5.89-1.421
	c2.189-0.121,4.673,0.265,7.177,1.761c-1.816-1.673-4.092-3.071-6.74-4.037c-3.446-1.37-7.413-1.928-11.395-2.267
	c-3.994-0.367-8.143-0.167-12.234,0.009c-3.434,0.19-6.848,0.53-10.229,0.855c-0.214,4.7-12.612,8.589-19.71,9.587
	c-0.353,0.047-0.511-0.199-0.186-0.302c3.962-1.227,7.019-3.215,9.718-5.193c1.264-0.934,2.462-1.904,3.702-2.852
	c0.265-0.205,0.562-0.399,0.868-0.595c-2.782,0.316-5.532,0.627-8.217,0.934c-3.804,0.516-7.516,0.91-11.055,1.17
	c-3.526,0.256-6.847,0.567-9.945,0.604c-3.098,0.102-5.969-0.061-8.473-0.13c-2.532-0.126-4.729-0.377-6.531-0.632
	c-1.816-0.27-3.228-0.576-4.194-0.804c-0.966-0.237-1.491-0.367-1.491-0.367s0.516,0.042,1.463,0.126
	c0.46,0.046,1.054,0.074,1.732,0.111c0.692,0.037,1.468,0.069,2.36,0.079c1.765,0.056,3.902,0.027,6.345-0.131
	c2.439-0.186,5.216-0.316,8.245-0.632c2.002-0.181,4.153-0.482,6.364-0.794c-2.555-0.288-5.616-0.729-8.068-1.189
	c-2.457-0.45-4.302-0.915-4.594-0.994c-0.107-0.032-0.102-0.139,0.019-0.148c4.269-0.464,10.252-1.04,14.423,0.316
	c0.725,0.236,1.975,0.789,2.727,1.379c3.191-0.45,6.526-1.021,10.015-1.584c3.916-0.575,7.966-1.165,12.086-1.774
	c1.668-0.181,3.354-0.366,5.04-0.548c-1.746-0.655-3.716-1.268-5.393-1.635c-2.346-0.525-5.068-0.502-7.6-0.679
	C189.509,193.423,189.686,192.889,190.27,192.889z M58.586,186.998c-1.054,1.055-2.634,2.709-4.682,5.092
	c-2.081,2.364-4.626,5.472-8.018,9.002c-1.705,1.737-3.609,3.618-5.917,5.281c-2.29,1.658-4.957,3.159-8.083,3.623
	c-3.136,0.558-6.61,0.098-9.072-2.159c-2.476-2.216-3.739-5.988-3.67-9.727c0.033-3.758,1.324-7.576,3.591-10.521
	c1.143-1.469,2.541-2.709,4.069-3.646c1.528-0.925,3.21-1.506,4.845-1.427c1.635,0.005,3.172,0.711,4.366,1.729
	c1.175,1.04,2.044,2.383,2.504,3.776c0.989,2.806,0.474,5.686-0.748,7.563c-1.203,1.918-2.811,2.963-3.925,3.553
	c-0.553,0.316-1.026,0.475-1.329,0.609c-0.306,0.13-0.464,0.19-0.464,0.19s0.167-0.052,0.479-0.158
	c0.316-0.107,0.804-0.224,1.384-0.511c1.152-0.512,2.889-1.44,4.315-3.387c1.435-1.899,2.234-4.984,1.342-8.18
	c-0.423-1.599-1.277-3.178-2.592-4.497c-1.31-1.296-3.164-2.285-5.226-2.434c-2.048-0.219-4.139,0.395-5.964,1.37
	c-1.821,0.984-3.493,2.318-4.9,3.939c-2.792,3.256-4.464,7.543-4.687,11.929c-0.116,2.201,0.112,4.436,0.822,6.564
	c0.669,2.127,1.863,4.143,3.512,5.708c1.635,1.589,3.744,2.606,5.834,3.075c2.1,0.465,4.18,0.399,6.076,0.089
	c3.897-0.595,7.061-2.48,9.532-4.395c2.503-1.946,4.422-4.046,6.094-5.979c3.293-3.906,5.491-7.307,7.219-9.927
	c3.284-5.118,4.891-7.622,4.891-7.622S59.66,185.977,58.586,186.998z M243.871,185.526c0,24.577,6.132,44.49,6.132,44.49
	s6.136-19.913,6.136-44.49c0-24.573-6.136-44.496-6.136-44.496S243.871,160.954,243.871,185.526z M223.827,165.589
	c0.372,0.669,0.716,1.314,1.105,1.909c0.391,0.594,0.785,1.152,1.161,1.672c0.726,1.055,1.528,1.928,2.216,2.685
	c0.349,0.381,0.669,0.725,0.98,1.026c0.32,0.293,0.632,0.562,0.896,0.809c1.105,0.947,1.737,1.407,1.737,1.407
	s-0.032-0.827-0.172-2.207c-0.037-0.348-0.079-0.725-0.13-1.138c-0.014-0.423-0.047-0.874-0.065-1.361
	c-0.069-0.957-0.186-2.011-0.209-3.191c-0.027-0.571-0.069-1.175-0.098-1.802c-0.018-0.618-0.032-1.264-0.051-1.928
	c-0.079-1.31-0.028-2.704-0.079-4.125c0.019-2.861,0.051-5.881,0.148-8.974c0.149-3.099,0.544-5.96,1.055-8.547
	c0.325-1.259,0.553-2.508,0.957-3.614c0.186-0.562,0.288-1.152,0.502-1.658c0.199-0.511,0.385-1.022,0.553-1.519
	c0.288-1.031,0.752-1.844,1.026-2.704c0.158-0.413,0.255-0.845,0.413-1.203c0.148-0.353,0.274-0.697,0.377-1.026
	c0.403-1.324,0.445-2.392-0.061-2.978c-0.493-0.59-1.505-0.646-3.006-0.139c-0.752,0.241-1.63,0.627-2.485,1.259
	c-0.868,0.627-1.941,1.319-2.843,2.336c-0.464,0.492-0.952,1.022-1.449,1.588c-0.511,0.562-0.896,1.222-1.356,1.886
	c-0.961,1.328-1.686,2.875-2.447,4.534c-1.371,3.344-2.268,7.265-2.448,11.362c-0.135,4.087,0.632,7.915,1.77,11.181
	C222.448,162.742,223.056,164.256,223.827,165.589z M241.761,124.931c0.721,0.697,1.51,1.212,2.425,1.76
	c0.878,0.558,1.835,1.18,2.704,1.858c0.855,0.669,1.663,1.366,2.188,1.89c0.572,0.53,0.925,0.855,0.925,0.855
	s0.348-0.325,0.919-0.855c0.53-0.525,1.343-1.221,2.189-1.89c0.868-0.678,1.835-1.301,2.713-1.858
	c0.905-0.548,1.704-1.063,2.415-1.76c1.422-1.403,2.987-2.843,4.306-4.348c1.292-1.482,2.3-3.034,2.054-4.58
	c-0.224-1.505-1.816-2.75-4.506-2.964c-1.338-0.084-2.945,0.056-4.636,0.688c-1.687,0.613-3.493,1.607-5.05,3.154
	c-0.144,0.148-0.273,0.315-0.403,0.464c-0.135-0.149-0.256-0.316-0.399-0.464c-1.571-1.547-3.377-2.541-5.064-3.154
	c-1.687-0.632-3.294-0.771-4.622-0.688c-2.689,0.214-4.278,1.458-4.515,2.964c-0.251,1.546,0.757,3.098,2.063,4.58
	C238.77,122.088,240.34,123.528,241.761,124.931z"/>
<g>
	<g>
		<path style="fill:#0F0F0F;" d="M162.933,337.152v-0.179c-0.243,0.278-0.482,0.504-0.719,0.679
			c-0.236,0.175-0.492,0.307-0.768,0.397c-0.276,0.09-0.577,0.136-0.904,0.136c-0.433,0-0.833-0.092-1.203-0.273
			c-0.368-0.185-0.688-0.446-0.956-0.786c-0.27-0.339-0.474-0.739-0.613-1.198c-0.14-0.459-0.209-0.955-0.209-1.491
			c0-1.129,0.276-2.01,0.829-2.643c0.551-0.631,1.277-0.945,2.178-0.945c0.521,0,0.959,0.088,1.318,0.268
			c0.358,0.178,0.706,0.454,1.046,0.825v-2.67c0-0.371,0.074-0.651,0.222-0.843c0.148-0.189,0.359-0.284,0.632-0.284
			c0.274,0,0.485,0.088,0.633,0.263c0.148,0.174,0.222,0.432,0.222,0.772v7.974c0,0.345-0.079,0.604-0.239,0.774
			c-0.159,0.173-0.364,0.259-0.616,0.259c-0.247,0-0.451-0.089-0.611-0.267C163.014,337.739,162.933,337.482,162.933,337.152z
			 M159.376,334.496c0,0.492,0.075,0.907,0.229,1.252c0.152,0.345,0.361,0.604,0.625,0.777c0.264,0.177,0.555,0.263,0.869,0.263
			c0.317,0,0.607-0.083,0.87-0.248c0.263-0.166,0.473-0.419,0.631-0.762c0.155-0.342,0.234-0.768,0.234-1.282
			c0-0.482-0.079-0.895-0.234-1.241c-0.158-0.347-0.369-0.612-0.637-0.795c-0.268-0.184-0.56-0.275-0.877-0.275
			c-0.331,0-0.627,0.093-0.887,0.282c-0.26,0.188-0.463,0.456-0.605,0.808C159.448,333.626,159.376,334.032,159.376,334.496z"/>
		<path style="fill:#0F0F0F;" d="M171.502,334.953h-3.536c0.004,0.411,0.086,0.773,0.248,1.087c0.162,0.313,0.375,0.549,0.643,0.708
			c0.267,0.159,0.562,0.239,0.884,0.239c0.216,0,0.414-0.026,0.592-0.075c0.179-0.051,0.352-0.133,0.52-0.239
			c0.168-0.109,0.322-0.226,0.464-0.349c0.141-0.124,0.324-0.291,0.549-0.502c0.092-0.08,0.225-0.121,0.397-0.121
			c0.185,0,0.335,0.053,0.45,0.152c0.115,0.102,0.173,0.246,0.173,0.432c0,0.162-0.064,0.354-0.192,0.573
			c-0.129,0.218-0.322,0.429-0.58,0.628c-0.258,0.201-0.583,0.367-0.974,0.501c-0.391,0.132-0.839,0.198-1.348,0.198
			c-1.161,0-2.064-0.332-2.708-0.994c-0.645-0.661-0.967-1.56-0.967-2.695c0-0.532,0.08-1.029,0.239-1.486
			c0.159-0.456,0.39-0.85,0.695-1.176c0.305-0.324,0.68-0.576,1.126-0.751c0.446-0.174,0.94-0.263,1.483-0.263
			c0.706,0,1.313,0.149,1.817,0.447c0.506,0.299,0.884,0.684,1.137,1.155c0.252,0.473,0.378,0.955,0.378,1.444
			c0,0.455-0.131,0.75-0.392,0.886C172.341,334.887,171.975,334.953,171.502,334.953z M167.966,333.927h3.278
			c-0.044-0.617-0.211-1.08-0.501-1.386c-0.289-0.308-0.669-0.462-1.142-0.462c-0.45,0-0.82,0.155-1.109,0.468
			C168.204,332.858,168.027,333.317,167.966,333.927z"/>
		<path style="fill:#0F0F0F;" d="M180.337,335.822c0,0.497-0.123,0.926-0.365,1.28c-0.243,0.357-0.601,0.625-1.076,0.81
			c-0.474,0.182-1.053,0.273-1.732,0.273c-0.649,0-1.206-0.1-1.67-0.298c-0.464-0.199-0.806-0.447-1.027-0.745
			c-0.22-0.297-0.331-0.598-0.331-0.898c0-0.197,0.071-0.368,0.212-0.509c0.142-0.141,0.32-0.213,0.537-0.213
			c0.19,0,0.335,0.048,0.437,0.14c0.102,0.093,0.199,0.223,0.291,0.391c0.186,0.322,0.407,0.564,0.665,0.722
			c0.259,0.159,0.611,0.238,1.057,0.238c0.362,0,0.659-0.08,0.891-0.242c0.232-0.159,0.348-0.345,0.348-0.551
			c0-0.319-0.12-0.552-0.36-0.697c-0.242-0.145-0.637-0.285-1.189-0.416c-0.623-0.155-1.129-0.316-1.52-0.487
			c-0.39-0.17-0.703-0.394-0.937-0.671c-0.233-0.279-0.35-0.622-0.35-1.029c0-0.36,0.107-0.703,0.323-1.025
			c0.215-0.321,0.536-0.578,0.956-0.771c0.422-0.192,0.932-0.287,1.527-0.287c0.468,0,0.888,0.048,1.262,0.143
			c0.373,0.1,0.685,0.231,0.934,0.393c0.249,0.164,0.439,0.344,0.569,0.542c0.13,0.201,0.196,0.395,0.196,0.584
			c0,0.207-0.069,0.377-0.209,0.509c-0.139,0.132-0.337,0.199-0.593,0.199c-0.186,0-0.343-0.053-0.473-0.158
			c-0.13-0.107-0.28-0.266-0.448-0.477c-0.136-0.177-0.297-0.319-0.482-0.426c-0.186-0.105-0.437-0.158-0.755-0.158
			c-0.327,0-0.598,0.07-0.814,0.211c-0.216,0.137-0.325,0.311-0.325,0.518c0,0.189,0.08,0.347,0.239,0.467
			c0.158,0.122,0.373,0.222,0.643,0.302c0.268,0.08,0.64,0.178,1.111,0.292c0.562,0.137,1.019,0.3,1.376,0.49
			c0.355,0.19,0.624,0.413,0.807,0.671C180.245,335.195,180.337,335.49,180.337,335.822z"/>
		<path style="fill:#0F0F0F;" d="M182.781,329.993c-0.253,0-0.468-0.078-0.646-0.232c-0.18-0.152-0.268-0.371-0.268-0.654
			c0-0.257,0.091-0.468,0.275-0.633c0.182-0.166,0.396-0.248,0.639-0.248c0.232,0,0.44,0.074,0.622,0.224
			c0.181,0.151,0.271,0.37,0.271,0.657c0,0.276-0.088,0.495-0.264,0.652C183.233,329.914,183.024,329.993,182.781,329.993z
			 M183.675,331.859v5.228c0,0.36-0.086,0.635-0.258,0.821c-0.172,0.186-0.391,0.277-0.656,0.277c-0.265,0-0.48-0.095-0.646-0.286
			c-0.165-0.189-0.247-0.46-0.247-0.813v-5.174c0-0.357,0.082-0.627,0.247-0.808c0.166-0.181,0.381-0.271,0.646-0.271
			c0.265,0,0.483,0.09,0.656,0.271C183.588,331.286,183.675,331.539,183.675,331.859z"/>
		<path style="fill:#0F0F0F;" d="M192.192,332.159v5.251c0,0.601-0.064,1.117-0.193,1.55c-0.127,0.434-0.333,0.79-0.616,1.073
			c-0.282,0.282-0.652,0.492-1.109,0.629c-0.458,0.137-1.026,0.205-1.705,0.205c-0.623,0-1.179-0.087-1.67-0.261
			c-0.49-0.176-0.867-0.4-1.133-0.676c-0.265-0.276-0.396-0.56-0.396-0.851c0-0.222,0.075-0.401,0.225-0.54
			c0.15-0.139,0.33-0.209,0.543-0.209c0.264,0,0.496,0.117,0.695,0.351c0.098,0.12,0.198,0.24,0.302,0.361
			c0.104,0.121,0.218,0.225,0.344,0.311c0.126,0.087,0.277,0.149,0.453,0.192c0.177,0.041,0.38,0.063,0.609,0.063
			c0.468,0,0.832-0.065,1.09-0.195c0.258-0.131,0.439-0.312,0.543-0.546c0.104-0.235,0.164-0.485,0.182-0.753
			c0.017-0.266,0.031-0.695,0.041-1.287c-0.279,0.389-0.6,0.684-0.965,0.887c-0.364,0.203-0.797,0.305-1.301,0.305
			c-0.604,0-1.133-0.153-1.586-0.463c-0.453-0.31-0.8-0.741-1.043-1.298c-0.242-0.558-0.364-1.2-0.364-1.93
			c0-0.541,0.075-1.031,0.222-1.468c0.148-0.438,0.358-0.807,0.632-1.107c0.273-0.301,0.59-0.526,0.947-0.678
			c0.357-0.152,0.751-0.228,1.18-0.228c0.511,0,0.956,0.097,1.33,0.295c0.375,0.195,0.724,0.503,1.047,0.922v-0.244
			c0-0.311,0.077-0.556,0.231-0.728c0.154-0.173,0.352-0.258,0.596-0.258c0.348,0,0.58,0.113,0.695,0.341
			C192.134,331.402,192.192,331.73,192.192,332.159z M186.952,334.45c0,0.733,0.161,1.289,0.481,1.663
			c0.32,0.374,0.734,0.561,1.242,0.561c0.3,0,0.585-0.08,0.851-0.24c0.268-0.161,0.486-0.405,0.653-0.729
			c0.169-0.325,0.251-0.717,0.251-1.183c0-0.737-0.163-1.31-0.487-1.722c-0.324-0.41-0.752-0.615-1.282-0.615
			c-0.517,0-0.931,0.195-1.242,0.59C187.108,333.168,186.952,333.726,186.952,334.45z"/>
		<path style="fill:#0F0F0F;" d="M195.663,331.834v0.22c0.318-0.421,0.665-0.729,1.043-0.925c0.376-0.195,0.811-0.294,1.3-0.294
			c0.477,0,0.903,0.103,1.279,0.31c0.374,0.209,0.656,0.502,0.841,0.883c0.119,0.22,0.196,0.458,0.231,0.714
			c0.036,0.257,0.053,0.584,0.053,0.98v3.365c0,0.36-0.083,0.635-0.248,0.821c-0.165,0.186-0.381,0.277-0.645,0.277
			c-0.27,0-0.489-0.095-0.656-0.286c-0.168-0.189-0.251-0.46-0.251-0.813v-3.015c0-0.595-0.083-1.051-0.248-1.368
			c-0.166-0.315-0.496-0.472-0.99-0.472c-0.323,0-0.616,0.096-0.882,0.288c-0.264,0.189-0.459,0.454-0.583,0.79
			c-0.088,0.271-0.132,0.775-0.132,1.512v2.265c0,0.366-0.086,0.641-0.255,0.825c-0.171,0.182-0.391,0.273-0.659,0.273
			c-0.26,0-0.474-0.095-0.643-0.286c-0.167-0.189-0.251-0.46-0.251-0.813v-5.228c0-0.343,0.074-0.6,0.225-0.77
			c0.149-0.171,0.355-0.255,0.616-0.255c0.158,0,0.302,0.037,0.429,0.112c0.127,0.075,0.232,0.188,0.308,0.338
			C195.623,331.435,195.663,331.617,195.663,331.834z"/>
		<path style="fill:#0F0F0F;" d="M207.258,334.953h-3.536c0.004,0.411,0.086,0.773,0.248,1.087c0.161,0.313,0.375,0.549,0.642,0.708
			c0.267,0.159,0.563,0.239,0.885,0.239c0.216,0,0.414-0.026,0.593-0.075c0.178-0.051,0.352-0.133,0.52-0.239
			c0.168-0.109,0.322-0.226,0.464-0.349c0.142-0.124,0.325-0.291,0.549-0.502c0.093-0.08,0.226-0.121,0.397-0.121
			c0.187,0,0.335,0.053,0.451,0.152c0.115,0.102,0.172,0.246,0.172,0.432c0,0.162-0.063,0.354-0.192,0.573
			c-0.128,0.218-0.321,0.429-0.58,0.628c-0.257,0.201-0.582,0.367-0.973,0.501c-0.391,0.132-0.84,0.198-1.347,0.198
			c-1.162,0-2.064-0.332-2.71-0.994c-0.644-0.661-0.967-1.56-0.967-2.695c0-0.532,0.081-1.029,0.239-1.486
			c0.159-0.456,0.391-0.85,0.697-1.176c0.304-0.324,0.678-0.576,1.124-0.751c0.447-0.174,0.94-0.263,1.484-0.263
			c0.706,0,1.312,0.149,1.817,0.447c0.505,0.299,0.884,0.684,1.137,1.155c0.251,0.473,0.377,0.955,0.377,1.444
			c0,0.455-0.131,0.75-0.39,0.886C208.097,334.887,207.731,334.953,207.258,334.953z M203.722,333.927h3.277
			c-0.044-0.617-0.211-1.08-0.501-1.386c-0.289-0.308-0.67-0.462-1.142-0.462c-0.45,0-0.821,0.155-1.109,0.468
			C203.959,332.858,203.783,333.317,203.722,333.927z"/>
		<path style="fill:#0F0F0F;" d="M215.225,337.152v-0.179c-0.243,0.278-0.481,0.504-0.719,0.679
			c-0.237,0.175-0.493,0.307-0.768,0.397c-0.277,0.09-0.578,0.136-0.905,0.136c-0.433,0-0.833-0.092-1.202-0.273
			c-0.369-0.185-0.688-0.446-0.958-0.786c-0.268-0.339-0.473-0.739-0.612-1.198c-0.139-0.459-0.209-0.955-0.209-1.491
			c0-1.129,0.276-2.01,0.828-2.643c0.552-0.631,1.278-0.945,2.179-0.945c0.521,0,0.96,0.088,1.317,0.268
			c0.358,0.178,0.707,0.454,1.047,0.825v-2.67c0-0.371,0.074-0.651,0.222-0.843c0.148-0.189,0.357-0.284,0.632-0.284
			c0.274,0,0.483,0.088,0.633,0.263c0.148,0.174,0.221,0.432,0.221,0.772v7.974c0,0.345-0.079,0.604-0.238,0.774
			c-0.159,0.173-0.365,0.259-0.616,0.259c-0.247,0-0.452-0.089-0.613-0.267C215.306,337.739,215.225,337.482,215.225,337.152z
			 M211.669,334.496c0,0.492,0.077,0.907,0.228,1.252c0.153,0.345,0.361,0.604,0.627,0.777c0.264,0.177,0.553,0.263,0.866,0.263
			c0.32,0,0.609-0.083,0.873-0.248c0.261-0.166,0.472-0.419,0.628-0.762c0.158-0.342,0.237-0.768,0.237-1.282
			c0-0.482-0.079-0.895-0.237-1.241c-0.156-0.347-0.369-0.612-0.636-0.795c-0.266-0.184-0.56-0.275-0.877-0.275
			c-0.331,0-0.627,0.093-0.888,0.282c-0.261,0.188-0.462,0.456-0.606,0.808C211.74,333.626,211.669,334.032,211.669,334.496z"/>
		<path style="fill:#0F0F0F;" d="M223.809,329.179v2.763c0.339-0.355,0.686-0.625,1.039-0.813c0.354-0.189,0.79-0.28,1.313-0.28
			c0.6,0,1.126,0.142,1.579,0.427c0.452,0.283,0.803,0.696,1.053,1.237c0.25,0.541,0.374,1.183,0.374,1.924
			c0,0.549-0.069,1.05-0.208,1.507c-0.139,0.458-0.342,0.855-0.606,1.188c-0.265,0.335-0.587,0.596-0.963,0.78
			c-0.378,0.182-0.794,0.273-1.249,0.273c-0.278,0-0.54-0.033-0.785-0.1c-0.245-0.065-0.453-0.151-0.626-0.261
			c-0.172-0.108-0.319-0.22-0.442-0.334c-0.121-0.114-0.28-0.287-0.479-0.517v0.179c0,0.341-0.081,0.597-0.246,0.772
			c-0.163,0.174-0.371,0.261-0.623,0.261c-0.255,0-0.46-0.087-0.613-0.261c-0.152-0.176-0.229-0.432-0.229-0.772v-7.895
			c0-0.365,0.075-0.644,0.223-0.831c0.148-0.188,0.354-0.282,0.619-0.282c0.278,0,0.492,0.09,0.643,0.27
			C223.733,328.594,223.809,328.848,223.809,329.179z M223.895,334.55c0,0.721,0.165,1.272,0.493,1.658
			c0.33,0.387,0.76,0.58,1.295,0.58c0.454,0,0.845-0.197,1.176-0.594c0.328-0.393,0.493-0.961,0.493-1.698
			c0-0.478-0.068-0.886-0.205-1.23c-0.137-0.347-0.332-0.61-0.584-0.798c-0.25-0.19-0.545-0.282-0.88-0.282
			c-0.345,0-0.651,0.093-0.92,0.282c-0.27,0.188-0.481,0.459-0.637,0.814C223.971,333.637,223.895,334.06,223.895,334.55z"/>
		<path style="fill:#0F0F0F;" d="M232.107,338.41l0.165-0.403l-2.226-5.604c-0.137-0.322-0.205-0.555-0.205-0.701
			c0-0.154,0.04-0.299,0.12-0.431c0.079-0.133,0.189-0.238,0.327-0.318c0.14-0.078,0.284-0.118,0.435-0.118
			c0.261,0,0.457,0.083,0.589,0.248c0.133,0.166,0.251,0.401,0.353,0.711l1.528,4.45l1.451-4.138
			c0.114-0.338,0.219-0.597,0.311-0.79c0.093-0.188,0.191-0.316,0.296-0.383c0.103-0.067,0.25-0.099,0.439-0.099
			c0.137,0,0.268,0.036,0.393,0.108c0.127,0.073,0.223,0.171,0.291,0.295c0.069,0.124,0.104,0.253,0.104,0.391
			c-0.018,0.083-0.046,0.203-0.085,0.357c-0.041,0.155-0.09,0.312-0.146,0.472l-2.357,6.171c-0.203,0.544-0.402,0.969-0.598,1.278
			c-0.192,0.309-0.45,0.546-0.77,0.713c-0.319,0.165-0.752,0.247-1.294,0.247c-0.53,0-0.928-0.057-1.192-0.172
			c-0.265-0.114-0.397-0.323-0.397-0.629c0-0.208,0.062-0.367,0.189-0.479c0.126-0.114,0.311-0.17,0.56-0.17
			c0.096,0,0.192,0.014,0.285,0.04c0.115,0.027,0.214,0.039,0.298,0.039c0.208,0,0.37-0.031,0.49-0.093
			c0.119-0.06,0.227-0.168,0.321-0.321C231.873,338.931,231.983,338.706,232.107,338.41z"/>
	</g>
	<g>
		<path style="fill:#0F0F0F;" d="M265.564,330.993h0.431v-0.542c0-0.566,0.072-1.016,0.216-1.349
			c0.142-0.333,0.387-0.577,0.729-0.729c0.343-0.153,0.811-0.229,1.407-0.229c1.055,0,1.583,0.259,1.583,0.775
			c0,0.169-0.056,0.313-0.166,0.432c-0.109,0.118-0.24,0.179-0.392,0.179c-0.071,0-0.191-0.015-0.364-0.041
			c-0.172-0.025-0.316-0.038-0.437-0.038c-0.326,0-0.535,0.096-0.628,0.286c-0.094,0.194-0.14,0.468-0.14,0.825v0.431h0.443
			c0.689,0,1.033,0.209,1.033,0.622c0,0.296-0.092,0.484-0.274,0.564c-0.184,0.079-0.436,0.119-0.759,0.119h-0.443v4.789
			c0,0.357-0.087,0.629-0.256,0.817c-0.17,0.189-0.391,0.281-0.66,0.281c-0.255,0-0.467-0.093-0.638-0.281
			c-0.17-0.189-0.255-0.46-0.255-0.817v-4.789h-0.497c-0.27,0-0.476-0.06-0.621-0.184c-0.148-0.119-0.22-0.277-0.22-0.472
			C264.656,331.21,264.959,330.993,265.564,330.993z"/>
		<path style="fill:#0F0F0F;" d="M272.022,335.576v1.511c0,0.366-0.088,0.641-0.26,0.825c-0.173,0.182-0.39,0.273-0.656,0.273
			c-0.259,0-0.474-0.092-0.641-0.277c-0.168-0.186-0.252-0.461-0.252-0.821v-5.033c0-0.813,0.293-1.219,0.879-1.219
			c0.303,0,0.518,0.095,0.65,0.284c0.132,0.189,0.204,0.47,0.219,0.842c0.217-0.372,0.438-0.652,0.665-0.842
			c0.228-0.189,0.532-0.284,0.911-0.284s0.748,0.095,1.105,0.284c0.358,0.189,0.536,0.441,0.536,0.755
			c0,0.221-0.076,0.402-0.228,0.548c-0.152,0.141-0.316,0.213-0.493,0.213c-0.065,0-0.227-0.039-0.48-0.122
			c-0.255-0.082-0.478-0.122-0.673-0.122c-0.266,0-0.482,0.069-0.648,0.209c-0.168,0.139-0.299,0.345-0.39,0.62
			c-0.094,0.272-0.158,0.599-0.193,0.976C272.038,334.573,272.022,335.034,272.022,335.576z"/>
		<path style="fill:#0F0F0F;" d="M280.875,334.953h-3.536c0.005,0.411,0.087,0.773,0.248,1.087c0.161,0.313,0.375,0.549,0.643,0.708
			c0.268,0.159,0.564,0.239,0.884,0.239c0.215,0,0.415-0.026,0.594-0.075c0.178-0.051,0.351-0.133,0.519-0.239
			c0.17-0.109,0.324-0.226,0.465-0.349c0.142-0.124,0.325-0.291,0.549-0.502c0.094-0.08,0.228-0.121,0.399-0.121
			c0.184,0,0.334,0.053,0.448,0.152c0.115,0.102,0.172,0.246,0.172,0.432c0,0.162-0.064,0.354-0.191,0.573
			c-0.13,0.218-0.321,0.429-0.578,0.628c-0.259,0.201-0.583,0.367-0.976,0.501c-0.39,0.132-0.84,0.198-1.347,0.198
			c-1.162,0-2.065-0.332-2.708-0.994c-0.645-0.661-0.968-1.56-0.968-2.695c0-0.532,0.08-1.029,0.238-1.486
			c0.159-0.456,0.392-0.85,0.694-1.176c0.307-0.324,0.683-0.576,1.129-0.751c0.445-0.174,0.938-0.263,1.482-0.263
			c0.705,0,1.311,0.149,1.816,0.447c0.506,0.299,0.886,0.684,1.136,1.155c0.251,0.473,0.379,0.955,0.379,1.444
			c0,0.455-0.131,0.75-0.391,0.886C281.713,334.887,281.349,334.953,280.875,334.953z M277.339,333.927h3.277
			c-0.044-0.617-0.209-1.08-0.499-1.386c-0.289-0.308-0.67-0.462-1.143-0.462c-0.45,0-0.82,0.155-1.108,0.468
			C277.576,332.858,277.401,333.317,277.339,333.927z"/>
		<path style="fill:#0F0F0F;" d="M288.935,334.953h-3.537c0.004,0.411,0.087,0.773,0.248,1.087c0.161,0.313,0.376,0.549,0.644,0.708
			c0.268,0.159,0.561,0.239,0.884,0.239c0.216,0,0.414-0.026,0.591-0.075c0.18-0.051,0.354-0.133,0.522-0.239
			c0.168-0.109,0.323-0.226,0.464-0.349c0.141-0.124,0.326-0.291,0.55-0.502c0.093-0.08,0.224-0.121,0.396-0.121
			c0.186,0,0.336,0.053,0.45,0.152c0.114,0.102,0.172,0.246,0.172,0.432c0,0.162-0.064,0.354-0.19,0.573
			c-0.129,0.218-0.321,0.429-0.581,0.628c-0.258,0.201-0.582,0.367-0.973,0.501c-0.391,0.132-0.84,0.198-1.348,0.198
			c-1.16,0-2.064-0.332-2.709-0.994c-0.644-0.661-0.965-1.56-0.965-2.695c0-0.532,0.078-1.029,0.235-1.486
			c0.16-0.456,0.392-0.85,0.695-1.176c0.306-0.324,0.681-0.576,1.127-0.751c0.446-0.174,0.941-0.263,1.482-0.263
			c0.708,0,1.314,0.149,1.819,0.447c0.505,0.299,0.884,0.684,1.136,1.155c0.253,0.473,0.377,0.955,0.377,1.444
			c0,0.455-0.129,0.75-0.392,0.886C289.775,334.887,289.408,334.953,288.935,334.953z M285.398,333.927h3.278
			c-0.044-0.617-0.212-1.08-0.5-1.386c-0.289-0.308-0.67-0.462-1.143-0.462c-0.451,0-0.819,0.155-1.109,0.468
			C285.636,332.858,285.459,333.317,285.398,333.927z"/>
		<path style="fill:#0F0F0F;" d="M293.439,331.849v0.217c0.341-0.419,0.694-0.727,1.059-0.922c0.366-0.198,0.781-0.295,1.244-0.295
			c0.557,0,1.068,0.143,1.536,0.43c0.47,0.288,0.841,0.706,1.112,1.258c0.271,0.552,0.406,1.204,0.406,1.96
			c0,0.557-0.08,1.067-0.236,1.533c-0.155,0.467-0.371,0.857-0.645,1.172c-0.274,0.316-0.597,0.56-0.97,0.729
			c-0.373,0.17-0.775,0.255-1.204,0.255c-0.516,0-0.948-0.104-1.301-0.313c-0.351-0.206-0.686-0.51-1.003-0.913v2.716
			c0,0.795-0.29,1.191-0.866,1.191c-0.342,0-0.566-0.102-0.677-0.308c-0.11-0.205-0.164-0.505-0.164-0.897v-7.803
			c0-0.343,0.076-0.6,0.223-0.77c0.15-0.171,0.356-0.255,0.618-0.255c0.255,0,0.464,0.085,0.625,0.261
			C293.358,331.271,293.439,331.522,293.439,331.849z M296.981,334.477c0-0.477-0.072-0.886-0.218-1.228
			c-0.147-0.344-0.348-0.606-0.607-0.789c-0.258-0.184-0.543-0.275-0.857-0.275c-0.498,0-0.92,0.195-1.262,0.59
			c-0.343,0.393-0.514,0.971-0.514,1.735c0,0.719,0.171,1.277,0.51,1.678c0.341,0.4,0.763,0.6,1.266,0.6
			c0.301,0,0.579-0.086,0.834-0.263c0.256-0.174,0.46-0.435,0.616-0.783C296.904,335.395,296.981,334.973,296.981,334.477z"/>
		<path style="fill:#0F0F0F;" d="M301.161,329.993c-0.252,0-0.469-0.078-0.646-0.232c-0.178-0.152-0.268-0.371-0.268-0.654
			c0-0.257,0.091-0.468,0.273-0.633c0.183-0.166,0.397-0.248,0.64-0.248c0.233,0,0.441,0.074,0.622,0.224
			c0.181,0.151,0.27,0.37,0.27,0.657c0,0.276-0.088,0.495-0.263,0.652C301.613,329.914,301.404,329.993,301.161,329.993z
			 M302.054,331.859v5.228c0,0.36-0.085,0.635-0.258,0.821c-0.172,0.186-0.39,0.277-0.655,0.277c-0.266,0-0.479-0.095-0.646-0.286
			c-0.166-0.189-0.247-0.46-0.247-0.813v-5.174c0-0.357,0.081-0.627,0.247-0.808c0.167-0.181,0.38-0.271,0.646-0.271
			c0.266,0,0.483,0.09,0.655,0.271C301.969,331.286,302.054,331.539,302.054,331.859z"/>
		<path style="fill:#0F0F0F;" d="M308.426,337.357l-1.596-2.623l-0.98,0.928v1.438c0,0.348-0.092,0.616-0.274,0.805
			c-0.185,0.189-0.395,0.281-0.632,0.281c-0.28,0-0.497-0.092-0.656-0.277c-0.159-0.186-0.238-0.461-0.238-0.821v-7.71
			c0-0.401,0.075-0.708,0.232-0.917c0.154-0.21,0.376-0.315,0.663-0.315c0.277,0,0.498,0.096,0.661,0.284
			c0.163,0.191,0.245,0.472,0.245,0.843v4.385l2.033-2.133c0.253-0.266,0.442-0.445,0.575-0.545
			c0.134-0.096,0.293-0.143,0.484-0.143c0.227,0,0.413,0.071,0.563,0.215c0.15,0.144,0.228,0.323,0.228,0.539
			c0,0.266-0.246,0.619-0.738,1.06l-0.958,0.881l1.853,2.915c0.139,0.215,0.236,0.38,0.295,0.492c0.06,0.112,0.09,0.222,0.09,0.322
			c0,0.287-0.079,0.513-0.236,0.679c-0.155,0.165-0.363,0.248-0.617,0.248c-0.22,0-0.392-0.058-0.511-0.179
			C308.79,337.888,308.629,337.672,308.426,337.357z"/>
		<path style="fill:#0F0F0F;" d="M312.896,338.185c-0.273,0-0.511-0.088-0.709-0.265c-0.197-0.177-0.299-0.424-0.299-0.743
			c0-0.268,0.096-0.5,0.284-0.693c0.191-0.195,0.427-0.292,0.704-0.292c0.277,0,0.514,0.096,0.712,0.288
			c0.195,0.192,0.294,0.425,0.294,0.697c0,0.315-0.099,0.562-0.294,0.74C313.391,338.097,313.16,338.185,312.896,338.185z"/>
		<path style="fill:#0F0F0F;" d="M322.428,335.946c0,0.225-0.069,0.466-0.205,0.723c-0.133,0.255-0.339,0.501-0.613,0.732
			c-0.276,0.232-0.625,0.419-1.043,0.559c-0.421,0.142-0.893,0.212-1.42,0.212c-1.114,0-1.987-0.325-2.614-0.977
			c-0.626-0.65-0.939-1.523-0.939-2.62c0-0.741,0.142-1.396,0.429-1.966c0.287-0.57,0.703-1.011,1.247-1.321
			c0.541-0.311,1.192-0.468,1.946-0.468c0.467,0,0.896,0.069,1.287,0.206c0.391,0.137,0.723,0.313,0.993,0.529
			c0.272,0.217,0.48,0.447,0.624,0.692c0.143,0.245,0.214,0.475,0.214,0.687c0,0.216-0.081,0.399-0.242,0.549
			c-0.161,0.15-0.355,0.225-0.585,0.225c-0.15,0-0.276-0.037-0.375-0.116c-0.099-0.076-0.21-0.2-0.334-0.372
			c-0.22-0.336-0.45-0.589-0.692-0.757c-0.24-0.167-0.546-0.251-0.917-0.251c-0.533,0-0.965,0.21-1.291,0.626
			c-0.326,0.417-0.491,0.988-0.491,1.712c0,0.34,0.041,0.652,0.126,0.936c0.086,0.284,0.207,0.528,0.365,0.729
			c0.158,0.202,0.351,0.354,0.576,0.458c0.225,0.102,0.474,0.155,0.742,0.155c0.36,0,0.671-0.084,0.93-0.252
			c0.259-0.168,0.486-0.423,0.686-0.769c0.111-0.202,0.23-0.362,0.358-0.476c0.129-0.115,0.284-0.172,0.47-0.172
			c0.221,0,0.404,0.083,0.549,0.25C322.352,335.579,322.428,335.758,322.428,335.946z"/>
		<path style="fill:#0F0F0F;" d="M330.77,334.511c0,0.537-0.084,1.034-0.251,1.489c-0.167,0.456-0.412,0.846-0.729,1.171
			c-0.317,0.327-0.697,0.578-1.139,0.754c-0.442,0.174-0.939,0.261-1.49,0.261c-0.547,0-1.039-0.088-1.478-0.265
			c-0.435-0.177-0.815-0.428-1.135-0.758c-0.32-0.331-0.563-0.719-0.728-1.166c-0.166-0.448-0.25-0.944-0.25-1.486
			c0-0.547,0.084-1.05,0.253-1.505c0.166-0.455,0.407-0.843,0.722-1.164c0.313-0.322,0.692-0.571,1.138-0.746
			c0.448-0.176,0.939-0.261,1.478-0.261c0.548,0,1.044,0.088,1.49,0.264c0.446,0.178,0.828,0.429,1.146,0.756
			c0.318,0.326,0.56,0.716,0.726,1.167C330.686,333.471,330.77,333.967,330.77,334.511z M328.955,334.511
			c0-0.738-0.162-1.313-0.485-1.722c-0.326-0.412-0.761-0.617-1.309-0.617c-0.353,0-0.664,0.092-0.935,0.275
			c-0.267,0.184-0.477,0.454-0.622,0.811c-0.146,0.357-0.219,0.774-0.219,1.253c0,0.472,0.071,0.884,0.216,1.237
			c0.143,0.354,0.349,0.624,0.615,0.812c0.268,0.188,0.582,0.281,0.944,0.281c0.548,0,0.982-0.206,1.309-0.619
			C328.793,335.81,328.955,335.237,328.955,334.511z"/>
		<path style="fill:#0F0F0F;" d="M338.208,334.643v2.403c0,0.38-0.087,0.664-0.258,0.854c-0.172,0.191-0.4,0.286-0.683,0.286
			c-0.273,0-0.496-0.095-0.665-0.286c-0.17-0.189-0.256-0.474-0.256-0.854v-2.881c0-0.455-0.016-0.807-0.046-1.059
			c-0.03-0.252-0.115-0.458-0.252-0.62c-0.136-0.161-0.353-0.24-0.648-0.24c-0.593,0-0.982,0.202-1.168,0.608
			c-0.189,0.405-0.283,0.989-0.283,1.749v2.442c0,0.377-0.086,0.66-0.255,0.851c-0.171,0.193-0.395,0.289-0.672,0.289
			c-0.272,0-0.498-0.096-0.673-0.289c-0.175-0.19-0.261-0.474-0.261-0.851v-5.172c0-0.339,0.078-0.598,0.235-0.775
			c0.155-0.176,0.362-0.264,0.618-0.264c0.248,0,0.454,0.083,0.619,0.248c0.166,0.166,0.25,0.393,0.25,0.686v0.173
			c0.313-0.375,0.648-0.653,1.005-0.828c0.359-0.177,0.756-0.265,1.192-0.265c0.454,0,0.847,0.089,1.172,0.271
			c0.327,0.182,0.598,0.454,0.809,0.822c0.305-0.371,0.632-0.647,0.979-0.825c0.349-0.18,0.736-0.268,1.161-0.268
			c0.493,0,0.92,0.096,1.276,0.29c0.358,0.195,0.624,0.473,0.801,0.834c0.156,0.329,0.232,0.842,0.232,1.544v3.529
			c0,0.38-0.087,0.664-0.26,0.854c-0.171,0.191-0.397,0.286-0.681,0.286c-0.272,0-0.498-0.096-0.672-0.289
			c-0.175-0.19-0.262-0.474-0.262-0.851v-3.039c0-0.388-0.018-0.699-0.048-0.936c-0.036-0.232-0.125-0.429-0.271-0.589
			c-0.144-0.158-0.364-0.236-0.661-0.236c-0.237,0-0.464,0.07-0.678,0.212c-0.213,0.142-0.381,0.331-0.502,0.568
			C338.274,333.331,338.208,333.868,338.208,334.643z"/>
	</g>
	<g>
		<path style="fill:#0F0F0F;" d="M251.319,326.173c-0.039-0.116-0.078-0.23-0.117-0.348c0.608-0.055,1.016-0.782,0.718-1.322
			c-0.268-0.608-1.205-0.684-1.567-0.126c-0.387,0.493-0.085,1.273,0.509,1.43c0.035,0.125,0.07,0.252,0.106,0.377
			c-0.91,0.057-1.838,0.26-2.601,0.78c0.077,0.222,0.155,0.443,0.233,0.665c1.54-0.675,3.269-0.526,4.895-0.366
			c0.055-0.215,0.108-0.43,0.162-0.644C252.925,326.289,252.117,326.167,251.319,326.173z"/>
		<path style="fill:#0F0F0F;" d="M260.482,328.66c-0.245,0.125-0.291,0.415-0.276,0.663c-0.271,0.263-0.144,0.66-0.174,0.993
			c-0.061,0.185-0.282,0.205-0.436,0.275c-0.212-0.323-0.44-0.637-0.724-0.901l0.001-0.016c-0.31-0.292-0.645-0.554-1-0.786
			c-0.287,0.307-0.586,0.604-0.86,0.924c0.543,0.597,1.045,1.234,1.489,1.91c0.304,0.514,0.552,1.061,0.763,1.618
			c0.459-0.233,0.911-0.479,1.369-0.721c-0.241-0.559-0.518-1.103-0.811-1.64c0.202-0.108,0.475-0.216,0.506-0.479
			c0.024-0.293-0.041-0.609,0.136-0.866c0.353,0.231,0.892-0.031,0.896-0.461C261.407,328.728,260.848,328.407,260.482,328.66z"/>
		<path style="fill:#0F0F0F;" d="M258.003,331.984c-0.596-0.989-1.242-1.974-2.12-2.737c-1.015-0.894-2.332-1.495-3.699-1.488
			c-1.729-0.022-3.477,0.259-5.067,0.953c-1.499,0.658-2.803,1.83-3.463,3.35c-0.637,1.363-0.629,2.935-0.341,4.386
			c1.589,0.398,3.204,0.752,4.844,0.83c1.617,0.049,3.246,0.089,4.852-0.138c2.207-0.289,4.369-0.99,6.294-2.116
			C259.303,335.023,259.039,333.569,258.003,331.984z M250.191,333.939c-0.299,0.435-0.729,0.773-1.223,0.964
			c-0.929,0.346-2.06,0.11-2.728-0.633c-0.468-0.512-0.743-1.203-0.693-1.9c0.035-0.872,0.574-1.685,1.338-2.091
			c0.583-0.317,1.287-0.373,1.921-0.195c0.267,0.067,0.514,0.193,0.741,0.346c0.469,0.333,0.823,0.825,0.979,1.38
			C250.747,332.521,250.607,333.322,250.191,333.939z M256.887,332.369c-0.107,0.743-0.819,1.376-1.581,1.326
			c-0.441,0.037-0.866-0.172-1.165-0.482c-0.215-0.267-0.393-0.575-0.42-0.925c-0.104-0.756,0.428-1.536,1.169-1.716
			c0.326-0.093,0.666-0.043,0.988,0.032C256.573,330.853,257.031,331.64,256.887,332.369z"/>
		<path style="fill:#0F0F0F;" d="M243.673,329.772c-0.646,0.389-1.177,0.939-1.619,1.544c-0.131-0.237-0.169-0.524-0.338-0.74
			c-0.096-0.128-0.268-0.075-0.402-0.078c-0.171,0.02-0.338-0.027-0.499-0.077c0.188-0.266,0.14-0.675-0.152-0.847
			c-0.308-0.222-0.787-0.029-0.867,0.338c-0.131,0.404,0.298,0.809,0.693,0.702c0.21,0.309,0.589,0.259,0.91,0.272
			c0.146,0.252,0.257,0.527,0.443,0.756c-0.346,0.684-0.541,1.448-0.557,2.214c0.443,0.185,0.888,0.374,1.333,0.56
			c0.024-0.483,0.079-0.963,0.153-1.438c0.148-1.036,0.748-1.939,1.458-2.682C244.055,330.111,243.858,329.947,243.673,329.772z"/>
		<path style="fill:#0F0F0F;" d="M254.063,337.595c-1.64,0.357-3.329,0.461-5.004,0.388c-1.132-0.059-2.263-0.162-3.369-0.407
			c-0.785-0.16-1.552-0.387-2.323-0.607c0.123,0.986,0.521,1.93,1.089,2.74c0.672,0.944,1.568,1.811,2.687,2.159
			c0.87,0.234,1.911,0.534,3.701,0.503c1.48-0.027,2.936-0.215,4.237-0.767c0.836-0.361,1.623-0.851,2.296-1.466
			c0.585-0.55,1.041-1.235,1.355-1.974c0.306-0.693,0.582-1.942,0.552-2.583C257.684,336.493,255.889,337.287,254.063,337.595z"/>
	</g>
</g>
</svg>
