<?xml version="1.0" encoding="UTF-8"?>
<svg version="1.1" xmlns="http://www.w3.org/2000/svg" width="50px" height="39px" viewBox="0 0 50 39">
<path d="M0 0 C66 0 132 0 200 0 C200 66 200 132 200 200 C134 200 68 200 0 200 C0 134 0 68 0 0 Z " fill="#FCFCFC" transform="translate(0,0)"/>
<path d="M0 0 C2.5 0.125 2.5 0.125 3.5 1.125 C5.18608966 1.19705511 6.87500659 1.20886068 8.5625 1.1875 C9.48160156 1.17847656 10.40070313 1.16945312 11.34765625 1.16015625 C12.05792969 1.14855469 12.76820312 1.13695312 13.5 1.125 C15.4943416 5.1136832 14.68485036 10.17734082 14.6875 14.5625 C14.69974609 15.62533203 14.71199219 16.68816406 14.72460938 17.78320312 C14.72654297 18.80220703 14.72847656 19.82121094 14.73046875 20.87109375 C14.73457764 21.80622803 14.73868652 22.7413623 14.74291992 23.70483398 C14.5 26.125 14.5 26.125 12.5 29.125 C10 29.4375 10 29.4375 7.5 29.125 C5.5 27.125 5.5 27.125 5.3046875 23.6484375 C5.31798507 22.26549032 5.34183768 20.88261346 5.375 19.5 C5.38402344 18.79359375 5.39304687 18.0871875 5.40234375 17.359375 C5.42592397 15.61443902 5.46179539 13.86967705 5.5 12.125 C4.84 12.125 4.18 12.125 3.5 12.125 C3.52320312 13.18460938 3.54640625 14.24421875 3.5703125 15.3359375 C3.58906944 16.7239513 3.60726972 18.1119727 3.625 19.5 C3.64175781 20.19867188 3.65851563 20.89734375 3.67578125 21.6171875 C3.69344267 23.45397486 3.60303261 25.29101963 3.5 27.125 C1.5 29.125 1.5 29.125 -1 29.4375 C-1.825 29.334375 -2.65 29.23125 -3.5 29.125 C-5.99118953 25.3882157 -5.7065226 23.38048181 -5.625 18.9375 C-5.60695313 17.66519531 -5.58890625 16.39289063 -5.5703125 15.08203125 C-5.54710938 14.10621094 -5.52390625 13.13039063 -5.5 12.125 C-6.16 12.125 -6.82 12.125 -7.5 12.125 C-7.47679688 13.18460938 -7.45359375 14.24421875 -7.4296875 15.3359375 C-7.41093056 16.7239513 -7.39273028 18.1119727 -7.375 19.5 C-7.35824219 20.19867188 -7.34148437 20.89734375 -7.32421875 21.6171875 C-7.30655733 23.45397486 -7.39696739 25.29101963 -7.5 27.125 C-8.16 27.785 -8.82 28.445 -9.5 29.125 C-14.05555556 28.56944444 -14.05555556 28.56944444 -15.5 27.125 C-15.57313567 24.59450598 -15.59247527 22.09195163 -15.5625 19.5625 C-15.55798828 18.85158203 -15.55347656 18.14066406 -15.54882812 17.40820312 C-15.53700864 15.64709987 -15.51907263 13.88603964 -15.5 12.125 C-16.49 12.125 -17.48 12.125 -18.5 12.125 C-18.48839844 13.12402344 -18.47679688 14.12304688 -18.46484375 15.15234375 C-18.45582031 16.44269531 -18.44679688 17.73304687 -18.4375 19.0625 C-18.42589844 20.35027344 -18.41429688 21.63804688 -18.40234375 22.96484375 C-18.5 26.125 -18.5 26.125 -19.5 27.125 C-21.49958364 27.16580783 -23.50045254 27.16754356 -25.5 27.125 C-27.32671197 23.47157606 -26.68470722 19.14660841 -26.6875 15.125 C-26.69974609 14.196875 -26.71199219 13.26875 -26.72460938 12.3125 C-26.72654297 11.425625 -26.72847656 10.53875 -26.73046875 9.625 C-26.73457764 8.8103125 -26.73868652 7.995625 -26.74291992 7.15625 C-26.5 5.125 -26.5 5.125 -24.5 3.125 C-22.4844873 3.38093812 -20.46702143 3.64356032 -18.47265625 4.03125 C-16.17361922 4.3361046 -16.17361922 4.3361046 -13.5 2.125 C-11.0546875 1.74609375 -11.0546875 1.74609375 -8.375 1.5625 C-5.12772073 1.33189611 -2.99202648 0.14960132 0 0 Z " fill="#201F20" transform="translate(104.5,50.875)"/>
<path d="M0 0 C3.9373465 0.20598973 5.96174613 0.94430769 8.6875 3.8125 C10.58733142 6.49716207 11.10789816 7.98524504 11.75 11.3125 C10.84363488 15.84432561 9.31054664 17.50195336 6.0625 20.75 C2.59975243 22.48137378 -1.15963962 22.37074384 -4.9375 21.75 C-5.659375 20.945625 -6.38125 20.14125 -7.125 19.3125 C-11.80609625 15.0475012 -17.82269576 15.84101874 -23.9375 15.75 C-23.9375 12.78 -23.9375 9.81 -23.9375 6.75 C-22.50857422 6.72873047 -22.50857422 6.72873047 -21.05078125 6.70703125 C-13.4454273 6.76849285 -13.4454273 6.76849285 -7.1875 3.1875 C-4.55665278 0.33741551 -3.75301755 0.24946202 0 0 Z " fill="#252425" transform="translate(144.9375,57.25)"/>
<path d="M0 0 C4.42679007 1.47559669 4.91432696 3.90057368 7 8 C7 8.66 7 9.32 7 10 C8.0725 9.29875 9.145 8.5975 10.25 7.875 C13.68711656 5.93558282 13.68711656 5.93558282 16.125 6.4375 C18.57879005 8.48232504 20.80414287 10.6821508 23 13 C22.690625 13.763125 22.38125 14.52625 22.0625 15.3125 C21.32106407 17.18789677 20.63771783 19.08684652 20 21 C23.25397508 23.25885324 23.25397508 23.25885324 27 24 C28.38938077 22.03852126 29.7260411 20.03833424 31 18 C32.64671412 18.30782496 34.29235576 18.62139234 35.9375 18.9375 C36.85402344 19.11152344 37.77054688 19.28554687 38.71484375 19.46484375 C41 20 41 20 42 21 C42.14115161 23.67058851 42.04247107 26.32432238 42 29 C44.64 29 47.28 29 50 29 C50 26.36 50 23.72 50 21 C51.24663331 20.49166409 52.49749387 19.99368855 53.75 19.5 C54.44609375 19.2215625 55.1421875 18.943125 55.859375 18.65625 C58 18 58 18 62 18 C65 22.07142857 65 22.07142857 65 25 C67.31 23.68 69.62 22.36 72 21 C71.649375 20.278125 71.29875 19.55625 70.9375 18.8125 C69.84629692 15.53889077 69.79331253 14.21783324 71 11 C73.25 8.125 73.25 8.125 76 6 C78.5625 6.125 78.5625 6.125 81 7 C82.33088293 7.34298616 83.66388979 7.67797767 85 8 C85.50660156 7.13375 85.50660156 7.13375 86.0234375 6.25 C86.69246094 5.13625 86.69246094 5.13625 87.375 4 C88.03628906 2.88625 88.03628906 2.88625 88.7109375 1.75 C89.13632813 1.1725 89.56171875 0.595 90 0 C90.66 0 91.32 0 92 0 C91.51675181 5.15464734 88.81389239 8.81550319 86 13 C83 12 80 11 77 10 C76.01 10.99 75.02 11.98 74 13 C74.309375 13.7425 74.61875 14.485 74.9375 15.25 C75.81160747 17.5123958 76.44256673 19.64974079 77 22 C75.21190303 23.17213045 73.41940875 24.33755526 71.625 25.5 C70.62726563 26.1496875 69.62953125 26.799375 68.6015625 27.46875 C66 29 66 29 64 29 C62.68 26.69 61.36 24.38 60 22 C58.02 22 56.04 22 54 22 C54.01160156 22.63808594 54.02320313 23.27617188 54.03515625 23.93359375 C54.04417969 24.75988281 54.05320313 25.58617188 54.0625 26.4375 C54.07410156 27.26121094 54.08570313 28.08492187 54.09765625 28.93359375 C54 31 54 31 53 32 C50.64686445 32.07271741 48.29166332 32.08370868 45.9375 32.0625 C44.64714844 32.05347656 43.35679688 32.04445312 42.02734375 32.03515625 C41.02832031 32.02355469 40.02929688 32.01195312 39 32 C39 29.03 39 26.06 39 23 C35.66857722 22.49874717 35.66857722 22.49874717 32 23 C29.50459629 25.86615486 29.50459629 25.86615486 28 29 C23.69235185 27.43358249 19.93828536 25.31663844 16 23 C16.90517241 17.31034483 16.90517241 17.31034483 17.6875 14.75 C17.790625 14.1725 17.89375 13.595 18 13 C17.34 12.34 16.68 11.68 16 11 C13.60611077 11.27802838 13.60611077 11.27802838 11 12 C9.33446832 12.33895886 7.66794368 12.67311657 6 13 C4.99193149 11.40089132 3.99379615 9.79551738 3 8.1875 C2.443125 7.29417969 1.88625 6.40085937 1.3125 5.48046875 C0 3 0 3 0 0 Z " fill="#363636" transform="translate(54,86)"/>
<path d="M0 0 C2.31243792 -0.02685412 4.6249627 -0.04632841 6.9375 -0.0625 C8.22527344 -0.07410156 9.51304688 -0.08570312 10.83984375 -0.09765625 C14 0 14 0 15 1 C15.14115161 3.67058851 15.04247107 6.32432238 15 9 C17.31 9.33 19.62 9.66 22 10 C22.309375 9.21625 22.61875 8.4325 22.9375 7.625 C24 5 24 5 25 3 C29.77609498 4.64178265 33.79382904 7.26546702 38 10 C37.5359375 11.11375 37.5359375 11.11375 37.0625 12.25 C36.1905075 14.50692176 35.52332993 16.6450153 35 19 C36.32 19.99 37.64 20.98 39 22 C39.928125 21.484375 40.85625 20.96875 41.8125 20.4375 C45 19 45 19 48 20 C49.38671875 21.9609375 49.38671875 21.9609375 50.6875 24.375 C51.12449219 25.16648437 51.56148438 25.95796875 52.01171875 26.7734375 C53 29 53 29 53 32 C48.60841671 30.5361389 48.12052567 28.02168662 46 24 C42.47131389 24.67391419 42.47131389 24.67391419 39.03515625 25.69921875 C37 26 37 26 35.26171875 24.9609375 C33.67774145 23.3651688 32.25453992 21.86883188 31 20 C31.0625 17.375 31.0625 17.375 32 15 C32.2784375 13.8553125 32.2784375 13.8553125 32.5625 12.6875 C32.706875 12.130625 32.85125 11.57375 33 11 C30.69 9.68 28.38 8.36 26 7 C25.5359375 8.175625 25.5359375 8.175625 25.0625 9.375 C24 12 24 12 23 14 C19.37 13.34 15.74 12.68 12 12 C12 8.7 12 5.4 12 2 C8.7 2 5.4 2 2 2 C2 5.3 2 8.6 2 12 C-1.3 12.66 -4.6 13.32 -8 14 C-9.32 12.02 -10.64 10.04 -12 8 C-14.64 8.66 -17.28 9.32 -20 10 C-19.29875 11.0725 -18.5975 12.145 -17.875 13.25 C-15.93558282 16.68711656 -15.93558282 16.68711656 -16.4375 19.125 C-18.48232504 21.57879005 -20.6821508 23.80414287 -23 26 C-26.0831351 24.80100302 -29.06279492 23.52299523 -32 22 C-32.28875 22.7425 -32.5775 23.485 -32.875 24.25 C-33.82302644 26.56739797 -34.84845911 28.77917115 -36 31 C-36.99 31 -37.98 31 -39 31 C-38.36934243 27.78147169 -37.21979305 25.49198931 -35.4375 22.75 C-34.98246094 22.04359375 -34.52742188 21.3371875 -34.05859375 20.609375 C-33.53458984 19.81273437 -33.53458984 19.81273437 -33 19 C-32.278125 19.144375 -31.55625 19.28875 -30.8125 19.4375 C-29.884375 19.623125 -28.95625 19.80875 -28 20 C-27.113125 20.226875 -26.22625 20.45375 -25.3125 20.6875 C-24.549375 20.790625 -23.78625 20.89375 -23 21 C-22.34 20.34 -21.68 19.68 -21 19 C-21.35899562 15.5895416 -22.4355638 13.01346316 -24 10 C-22.58833114 9.01364163 -21.17043816 8.03618745 -19.75 7.0625 C-18.56664062 6.24458984 -18.56664062 6.24458984 -17.359375 5.41015625 C-15.17363007 4.10377559 -13.4846199 3.45019489 -11 3 C-10.484375 3.99 -9.96875 4.98 -9.4375 6 C-8.633125 6.99 -7.82875 7.98 -7 9 C-3.33142278 9.50125283 -3.33142278 9.50125283 0 9 C0 6.03 0 3.06 0 0 Z " fill="#333233" transform="translate(93,19)"/>
<path d="M0 0 C1.11375 1.2375 1.11375 1.2375 2.25 2.5 C6.53279451 6.39344955 11.39720533 5.90170536 17 6 C17 8.97 17 11.94 17 15 C16.20335938 15.01417969 15.40671875 15.02835938 14.5859375 15.04296875 C7.56342029 15.10057271 7.56342029 15.10057271 1.8125 18.5625 C-1.65033516 21.5636238 -3.50266184 21.62168549 -7.94140625 21.3671875 C-10.63497879 20.88674003 -12.18592484 20.05069366 -14 18 C-14 17.34 -14 16.68 -14 16 C-12.906875 15.896875 -11.81375 15.79375 -10.6875 15.6875 C-7.14440371 15.02692273 -6.06756277 14.7972908 -4 12 C-4.66 10.02 -5.32 8.04 -6 6 C-8.97 6 -11.94 6 -15 6 C-11.69293551 -0.61412898 -7.13519619 -2.47667967 0 0 Z " fill="#272627" transform="translate(59,58)"/>
<path d="M0 0 C3.96 0 7.92 0 12 0 C14.44986932 2.44986932 14.25631311 3.137078 14.265625 6.5 C14.26820313 7.386875 14.27078125 8.27375 14.2734375 9.1875 C14.26570312 10.115625 14.25796875 11.04375 14.25 12 C14.25773438 12.928125 14.26546875 13.85625 14.2734375 14.8125 C14.27085937 15.699375 14.26828125 16.58625 14.265625 17.5 C14.26336914 18.3146875 14.26111328 19.129375 14.25878906 19.96875 C14 22 14 22 12 24 C8.375 24.125 8.375 24.125 5 24 C5 26.31 5 28.62 5 31 C3.35 31 1.7 31 0 31 C0 20.77 0 10.54 0 0 Z " fill="#262525" transform="translate(115,133)"/>
<path d="M0 0 C4.98046875 0.09765625 4.98046875 0.09765625 9.9609375 0.1953125 C9.9609375 8.1153125 9.9609375 16.0353125 9.9609375 24.1953125 C-0 24.390625 -0 24.390625 -3.0390625 24.1953125 C-5.48893182 21.74544318 -5.29537561 21.0582345 -5.3046875 17.6953125 C-5.30726562 16.8084375 -5.30984375 15.9215625 -5.3125 15.0078125 C-5.30089844 13.615625 -5.30089844 13.615625 -5.2890625 12.1953125 C-5.29679687 11.2671875 -5.30453125 10.3390625 -5.3125 9.3828125 C-5.30992188 8.4959375 -5.30734375 7.6090625 -5.3046875 6.6953125 C-5.30243164 5.880625 -5.30017578 5.0659375 -5.29785156 4.2265625 C-4.83998643 0.63275312 -3.44144537 0.22117258 0 0 Z " fill="#333232" transform="translate(61.0390625,132.8046875)"/>
<path d="M0 0 C0.9796875 0.00515625 1.959375 0.0103125 2.96875 0.015625 C3.9484375 0.01046875 4.928125 0.0053125 5.9375 0 C8.46875 0.265625 8.46875 0.265625 10.46875 2.265625 C10.72753906 4.296875 10.72753906 4.296875 10.734375 6.765625 C10.73695313 7.6525 10.73953125 8.539375 10.7421875 9.453125 C10.73445312 10.38125 10.72671875 11.309375 10.71875 12.265625 C10.72648438 13.19375 10.73421875 14.121875 10.7421875 15.078125 C10.73960937 15.965 10.73703125 16.851875 10.734375 17.765625 C10.73211914 18.5803125 10.72986328 19.395 10.72753906 20.234375 C10.46875 22.265625 10.46875 22.265625 8.46875 24.265625 C5.9375 24.53125 5.9375 24.53125 2.96875 24.515625 C1.9890625 24.52078125 1.009375 24.5259375 0 24.53125 C-2.53125 24.265625 -2.53125 24.265625 -4.53125 22.265625 C-4.79003906 20.234375 -4.79003906 20.234375 -4.796875 17.765625 C-4.79945313 16.87875 -4.80203125 15.991875 -4.8046875 15.078125 C-4.79308594 13.6859375 -4.79308594 13.6859375 -4.78125 12.265625 C-4.78898438 11.3375 -4.79671875 10.409375 -4.8046875 9.453125 C-4.80210937 8.56625 -4.79953125 7.679375 -4.796875 6.765625 C-4.79461914 5.9509375 -4.79236328 5.13625 -4.79003906 4.296875 C-4.37539281 1.04229313 -3.16466181 0.33209414 0 0 Z " fill="#282727" transform="translate(138.53125,132.734375)"/>
<path d="M0 0 C1.98 0 3.96 0 6 0 C6.33 5.28 6.66 10.56 7 16 C7.99 13.69 8.98 11.38 10 9 C11.98 9 13.96 9 16 9 C14.20320856 14.64705882 14.20320856 14.64705882 12.8125 17.0625 C10.78508877 21.89709602 14.36877591 28.2909946 16 33 C14.02 33 12.04 33 10 33 C9.01 30.69 8.02 28.38 7 26 C6.67 28.31 6.34 30.62 6 33 C4.02 33 2.04 33 0 33 C0 22.11 0 11.22 0 0 Z " fill="#3F3E3E" transform="translate(95,124)"/>
<path d="M0 0 C6.69007317 4.77862369 11.90786053 10.30220017 15 18 C15 18.66 15 19.32 15 20 C14.01 20 13.02 20 12 20 C10.640625 18.0234375 10.640625 18.0234375 9.25 15.375 C4.92709426 7.87348709 -0.08739194 3.6590818 -8.2578125 0.69140625 C-16.0675287 -1.27771023 -24.86599751 -0.94806442 -32 3 C-38.51799527 7.75089433 -42.99990093 12.49975232 -46 20 C-46.99 20 -47.98 20 -49 20 C-48.55864912 12.93838597 -42.96863154 7.69836894 -38 3.1875 C-27.17440071 -5.86476303 -12.37045242 -6.72778992 0 0 Z " fill="#343334" transform="translate(117,39)"/>
<path d="M0 0 C0.66 0 1.32 0 2 0 C0.76919787 8.06387603 -4.53822137 14.43335263 -10.75 19.4921875 C-18.7952123 24.88359713 -27.49281474 26.12616284 -37 25 C-45.93251982 23.04520218 -53.10803026 17.22607277 -58.515625 9.96484375 C-60.20295599 7.16648848 -61 5.29669559 -61 2 C-57.53121854 3.15626049 -57.44688135 3.56864787 -55.8125 6.625 C-51.75227839 13.37587593 -46.25100556 18.46106722 -38.5390625 20.5546875 C-28.03203065 22.39745924 -19.85979994 21.12273144 -11 15 C-6.47911567 10.95288508 -3.44349859 6.56574679 -1 1 C-0.67 0.67 -0.34 0.34 0 0 Z " fill="#323132" transform="translate(130,77)"/>
<path d="M0 0 C1.48306641 0.02126953 1.48306641 0.02126953 2.99609375 0.04296875 C3.98738281 0.04941406 4.97867188 0.05585938 6 0.0625 C8.43359375 0.23046875 8.43359375 0.23046875 9.43359375 1.23046875 C9.47452312 3.56344308 9.47601098 5.897521 9.43359375 8.23046875 C7.78359375 8.23046875 6.13359375 8.23046875 4.43359375 8.23046875 C4.43359375 6.91046875 4.43359375 5.59046875 4.43359375 4.23046875 C3.11359375 4.23046875 1.79359375 4.23046875 0.43359375 4.23046875 C0.43359375 9.51046875 0.43359375 14.79046875 0.43359375 20.23046875 C1.75359375 20.23046875 3.07359375 20.23046875 4.43359375 20.23046875 C4.43359375 18.91046875 4.43359375 17.59046875 4.43359375 16.23046875 C6.08359375 16.23046875 7.73359375 16.23046875 9.43359375 16.23046875 C9.47601098 18.5634165 9.47452312 20.89749442 9.43359375 23.23046875 C7.69509747 24.96896503 5.35493005 24.40263171 2.99609375 24.41796875 C2.00738281 24.43214844 1.01867187 24.44632813 0 24.4609375 C-2.56640625 24.23046875 -2.56640625 24.23046875 -4.56640625 22.23046875 C-4.82519531 20.19921875 -4.82519531 20.19921875 -4.83203125 17.73046875 C-4.83460937 16.84359375 -4.8371875 15.95671875 -4.83984375 15.04296875 C-4.82824219 13.65078125 -4.82824219 13.65078125 -4.81640625 12.23046875 C-4.82414062 11.30234375 -4.831875 10.37421875 -4.83984375 9.41796875 C-4.83726563 8.53109375 -4.8346875 7.64421875 -4.83203125 6.73046875 C-4.82977539 5.91578125 -4.82751953 5.10109375 -4.82519531 4.26171875 C-4.40709989 0.98006415 -3.1930975 0.28674696 0 0 Z " fill="#2B2929" transform="translate(80.56640625,132.76953125)"/>
<path d="M0 0 C1.65 0 3.3 0 5 0 C5.04939115 4.09338652 5.08571501 8.18665798 5.10986328 12.28027344 C5.11992877 13.67320781 5.13358234 15.06612102 5.15087891 16.45898438 C5.1751022 18.4595436 5.18540814 20.46025615 5.1953125 22.4609375 C5.20578613 23.66540527 5.21625977 24.86987305 5.22705078 26.11083984 C5 29 5 29 3 31 C0.6875 31.265625 0.6875 31.265625 -2 31.25 C-3.3303125 31.25773437 -3.3303125 31.25773437 -4.6875 31.265625 C-7 31 -7 31 -9 29 C-9.1953125 26.8359375 -9.1953125 26.8359375 -9.125 24.375 C-9.10695312 23.55773437 -9.08890625 22.74046875 -9.0703125 21.8984375 C-9.04710937 21.27195313 -9.02390625 20.64546875 -9 20 C-7.35 20 -5.7 20 -4 20 C-4 22.31 -4 24.62 -4 27 C-2.68 27 -1.36 27 0 27 C0 18.09 0 9.18 0 0 Z " fill="#282626" transform="translate(46,126)"/>
<path d="M0 0 C1.65 0.33 3.3 0.66 5 1 C5 2.32 5 3.64 5 5 C5.99 5 6.98 5 8 5 C8 6.32 8 7.64 8 9 C7.01 9 6.02 9 5 9 C5 14.28 5 19.56 5 25 C5.99 25 6.98 25 8 25 C8 26.32 8 27.64 8 29 C5.69 29 3.38 29 1 29 C-0.1482685 26.703463 -0.11561175 25.41686833 -0.09765625 22.8671875 C-0.09282227 21.65869141 -0.09282227 21.65869141 -0.08789062 20.42578125 C-0.07951172 19.58402344 -0.07113281 18.74226563 -0.0625 17.875 C-0.05798828 17.02550781 -0.05347656 16.17601562 -0.04882812 15.30078125 C-0.03702874 13.20049091 -0.01909306 11.1002367 0 9 C-0.99 9 -1.98 9 -3 9 C-2.44271087 5.65626525 -1.64826111 2.96687001 0 0 Z " fill="#2C2B2B" transform="translate(155,128)"/>
<path d="M0 0 C1.65 0 3.3 0 5 0 C5 10.89 5 21.78 5 33 C3.35 33 1.7 33 0 33 C0 22.11 0 11.22 0 0 Z " fill="#292828" transform="translate(95,124)"/>
<path d="M0 0 C0.66 0 1.32 0 2 0 C1.51675181 5.15464734 -1.18610761 8.81550319 -4 13 C-7 12 -10 11 -13 10 C-13.99 10.99 -14.98 11.98 -16 13 C-15.690625 13.7425 -15.38125 14.485 -15.0625 15.25 C-14.18839253 17.5123958 -13.55743327 19.64974079 -13 22 C-14.78809697 23.17213045 -16.58059125 24.33755526 -18.375 25.5 C-19.37273437 26.1496875 -20.37046875 26.799375 -21.3984375 27.46875 C-24 29 -24 29 -26 29 C-26.66 27.02 -27.32 25.04 -28 23 C-27.01 23 -26.02 23 -25 23 C-25 23.66 -25 24.32 -25 25 C-22.69 23.68 -20.38 22.36 -18 21 C-18.350625 20.278125 -18.70125 19.55625 -19.0625 18.8125 C-20.15370308 15.53889077 -20.20668747 14.21783324 -19 11 C-16.75 8.125 -16.75 8.125 -14 6 C-11.4375 6.125 -11.4375 6.125 -9 7 C-7.66911707 7.34298616 -6.33611021 7.67797767 -5 8 C-4.66226563 7.4225 -4.32453125 6.845 -3.9765625 6.25 C-3.53054687 5.5075 -3.08453125 4.765 -2.625 4 C-2.18414062 3.2575 -1.74328125 2.515 -1.2890625 1.75 C-0.86367187 1.1725 -0.43828125 0.595 0 0 Z " fill="#313031" transform="translate(144,86)"/>
<path d="M0 0 C0.66 0 1.32 0 2 0 C2.1953125 6.0546875 2.1953125 6.0546875 2 8 C-0.40829792 10.40829792 -0.99283556 10.25602579 -4.28125 10.265625 C-5.12300781 10.26820312 -5.96476562 10.27078125 -6.83203125 10.2734375 C-8.15267578 10.26183594 -8.15267578 10.26183594 -9.5 10.25 C-10.38042969 10.25773437 -11.26085937 10.26546875 -12.16796875 10.2734375 C-13.00972656 10.27085938 -13.85148437 10.26828125 -14.71875 10.265625 C-15.49154297 10.26336914 -16.26433594 10.26111328 -17.06054688 10.25878906 C-19 10 -19 10 -21 8 C-20.67 7.01 -20.34 6.02 -20 5 C-18.35492782 4.80593522 -16.70890406 4.61992065 -15.0625 4.4375 C-13.68771484 4.28087891 -13.68771484 4.28087891 -12.28515625 4.12109375 C-11.53105469 4.08113281 -10.77695313 4.04117188 -10 4 C-9.67 4.33 -9.34 4.66 -9 5 C-6.62778044 5.50135199 -6.62778044 5.50135199 -4 5 C-1.79857668 2.5609294 -1.79857668 2.5609294 0 0 Z " fill="#1E1D1E" transform="translate(121,77)"/>
<path d="M0 0 C7.68949942 -0.68351106 14.46015407 1.48947097 20.75390625 5.953125 C26.14958245 10.55271783 30.33605379 15.36817601 33 22 C33 22.66 33 23.32 33 24 C32.01 24 31.02 24 30 24 C28.640625 22.0234375 28.640625 22.0234375 27.25 19.375 C21.82422606 9.9596864 14.87877601 6.24016895 4.58203125 3.3125 C2.72982235 2.8404326 0.86590323 2.41464516 -1 2 C-0.67 1.34 -0.34 0.68 0 0 Z " fill="#323132" transform="translate(99,35)"/>
<path d="M0 0 C4.42679007 1.47559669 4.91432696 3.90057368 7 8 C7 8.66 7 9.32 7 10 C8.0725 9.29875 9.145 8.5975 10.25 7.875 C13.68711656 5.93558282 13.68711656 5.93558282 16.125 6.4375 C18.57879005 8.48232504 20.80414287 10.6821508 23 13 C21.125 17.75 21.125 17.75 20 20 C19.34 20 18.68 20 18 20 C18.33 20.99 18.66 21.98 19 23 C18.01 23 17.02 23 16 23 C16.90517241 17.31034483 16.90517241 17.31034483 17.6875 14.75 C17.790625 14.1725 17.89375 13.595 18 13 C17.34 12.34 16.68 11.68 16 11 C13.60611077 11.27802838 13.60611077 11.27802838 11 12 C9.33446832 12.33895886 7.66794368 12.67311657 6 13 C4.99193149 11.40089132 3.99379615 9.79551738 3 8.1875 C2.443125 7.29417969 1.88625 6.40085937 1.3125 5.48046875 C0 3 0 3 0 0 Z " fill="#333233" transform="translate(54,86)"/>
<path d="M0 0 C2.4375 0.6875 2.4375 0.6875 4.4375 1.6875 C4.4375 3.9975 4.4375 6.3075 4.4375 8.6875 C-0.97788462 10.90288462 -0.97788462 10.90288462 -3.9375 9.8125 C-4.47375 9.44125 -5.01 9.07 -5.5625 8.6875 C-5.75 5.3125 -5.75 5.3125 -5.5625 1.6875 C-2.5625 -0.3125 -2.5625 -0.3125 0 0 Z " fill="#F3F3F3" transform="translate(145.5625,63.3125)"/>
<path d="M0 0 C0.33 0.66 0.66 1.32 1 2 C2.93330603 3.09166275 2.93330603 3.09166275 5 4 C5.66 4.33 6.32 4.66 7 5 C7.969375 4.505 8.93875 4.01 9.9375 3.5 C13 2 13 2 16 3 C17.38671875 4.9609375 17.38671875 4.9609375 18.6875 7.375 C19.12449219 8.16648437 19.56148437 8.95796875 20.01171875 9.7734375 C21 12 21 12 21 15 C16.60841671 13.5361389 16.12052567 11.02168662 14 7 C10.46604794 7.67374548 10.46604794 7.67374548 7.03125 8.71875 C5 9 5 9 3.296875 7.78515625 C2.78640625 7.21667969 2.2759375 6.64820313 1.75 6.0625 C1.22921875 5.49660156 0.7084375 4.93070313 0.171875 4.34765625 C-0.21484375 3.90292969 -0.6015625 3.45820312 -1 3 C-0.67 2.01 -0.34 1.02 0 0 Z " fill="#292829" transform="translate(125,36)"/>
<path d="M0 0 C2.31243792 -0.02685412 4.6249627 -0.04632841 6.9375 -0.0625 C8.22527344 -0.07410156 9.51304688 -0.08570312 10.83984375 -0.09765625 C14 0 14 0 15 1 C15.07205511 2.68608966 15.08386068 4.37500659 15.0625 6.0625 C15.05347656 6.98160156 15.04445313 7.90070312 15.03515625 8.84765625 C15.02355469 9.55792969 15.01195313 10.26820312 15 11 C14.01 11 13.02 11 12 11 C12 8.03 12 5.06 12 2 C8.7 2 5.4 2 2 2 C2 5.3 2 8.6 2 12 C0.02 12 -1.96 12 -4 12 C-3.67 11.34 -3.34 10.68 -3 10 C-2.01 10 -1.02 10 0 10 C0 6.7 0 3.4 0 0 Z " fill="#242324" transform="translate(93,19)"/>
<path d="M0 0 C1.65 0 3.3 0 5 0 C5 5.28 5 10.56 5 16 C3.35 16 1.7 16 0 16 C0 10.72 0 5.44 0 0 Z " fill="#EAEAEA" transform="translate(139,137)"/>
<path d="M0 0 C0.66 0 1.32 0 2 0 C2.06058594 1.07121094 2.12117188 2.14242187 2.18359375 3.24609375 C2.26798537 4.64324391 2.35263406 6.04037857 2.4375 7.4375 C2.47681641 8.14455078 2.51613281 8.85160156 2.55664062 9.58007812 C2.47624438 13.08690419 2.47624438 13.08690419 4 16 C5.66617115 16.04063832 7.33388095 16.042721 9 16 C9.33 15.34 9.66 14.68 10 14 C10.99 14.33 11.98 14.66 13 15 C11.3125 17.5 11.3125 17.5 9 20 C4.0657093 20.75912165 -0.68687427 19.39618096 -5 17 C-4.35546875 16.82726562 -3.7109375 16.65453125 -3.046875 16.4765625 C-0.59554118 15.07017372 -0.59554118 15.07017372 -0.390625 11.5234375 C-0.32418219 10.141427 -0.2780748 8.7583219 -0.25 7.375 C-0.22035156 6.66859375 -0.19070312 5.9621875 -0.16015625 5.234375 C-0.08944643 3.49019953 -0.04245965 1.74509173 0 0 Z " fill="#ECECEC" transform="translate(108,63)"/>
<path d="M0 0 C1.32 0 2.64 0 4 0 C4 5.28 4 10.56 4 16 C2.68 16 1.36 16 0 16 C0 10.72 0 5.44 0 0 Z " fill="#EDEDED" transform="translate(120,137)"/>
<path d="M0 0 C0.61875 1.2684375 0.61875 1.2684375 1.25 2.5625 C1.8275 3.366875 2.405 4.17125 3 5 C6.62599422 5.41725678 6.62599422 5.41725678 10 5 C8.06745228 7.0245738 6.36841312 8.42105792 4 10 C1 9 1 9 -0.4375 6.5 C-1.72979205 3.83558873 -1.72979205 3.83558873 -4.125 3.3125 C-4.74375 3.209375 -5.3625 3.10625 -6 3 C-6.33 2.34 -6.66 1.68 -7 1 C-3.375 -1.125 -3.375 -1.125 0 0 Z " fill="#3C3C3C" transform="translate(83,23)"/>
<path d="M0 0 C0.99 0 1.98 0 3 0 C3 5.28 3 10.56 3 16 C2.01 16 1.02 16 0 16 C0 10.72 0 5.44 0 0 Z " fill="#FBFBFB" transform="translate(62,137)"/>
<path d="M0 0 C0.66 0.33 1.32 0.66 2 1 C1 4 1 4 -2.375 5.6875 C-7.52570868 7.48556558 -12.6118425 7.26742693 -18 7 C-14.27405349 4.99902872 -10.49337258 3.9188728 -6.4375 2.78125 C-3.98445837 2.07349026 -3.98445837 2.07349026 -1.8125 0.84375 C-1.214375 0.5653125 -0.61625 0.286875 0 0 Z " fill="#2A2A2A" transform="translate(116,94)"/>
<path d="M0 0 C0.33 0.99 0.66 1.98 1 3 C-0.4375 5.6875 -0.4375 5.6875 -2 8 C-5.63 7.34 -9.26 6.68 -13 6 C-12.01 5.67 -11.02 5.34 -10 5 C-10 4.34 -10 3.68 -10 3 C-7.69 3.33 -5.38 3.66 -3 4 C-3 3.34 -3 2.68 -3 2 C-2.01 1.34 -1.02 0.68 0 0 Z " fill="#2D2C2D" transform="translate(118,25)"/>
<path d="M0 0 C0.66 1.65 1.32 3.3 2 5 C1.01 5.33 0.02 5.66 -1 6 C-1.66 5.34 -2.32 4.68 -3 4 C-5.58354218 3.83312552 -5.58354218 3.83312552 -8 4 C-8 6.97 -8 9.94 -8 13 C-8.33 13 -8.66 13 -9 13 C-9.28527487 9.62107766 -9.43949017 6.36942461 -9 3 C-5.84504252 0.02031794 -4.37295237 0 0 0 Z " fill="#3D3C3D" transform="translate(116,104)"/>
<path d="M0 0 C3.64187858 1.21395953 3.91745993 2.09006077 5.6875 5.375 C6.34298828 6.56222656 6.34298828 6.56222656 7.01171875 7.7734375 C8 10 8 10 8 13 C4.59402245 11.86467415 4.46547428 11.51883178 2.9375 8.5 C1.57554472 5.66980932 1.57554472 5.66980932 -1 4 C-0.67 2.68 -0.34 1.36 0 0 Z " fill="#333233" transform="translate(138,38)"/>
<path d="M0 0 C5.93002267 -0.37851209 10.47239641 0.89424625 16 3 C15.67 3.66 15.34 4.32 15 5 C9.49191603 4.40984815 4.35121931 3.43336231 -1 2 C-0.67 1.34 -0.34 0.68 0 0 Z " fill="#2C2C2C" transform="translate(99,35)"/>
<path d="M0 0 C0.99 0 1.98 0 3 0 C3 4.29 3 8.58 3 13 C2.01 13.33 1.02 13.66 0 14 C0 9.38 0 4.76 0 0 Z " fill="#C6C6C6" transform="translate(86,63)"/>
<path d="M0 0 C0.99 0.33 1.98 0.66 3 1 C1.625 2.5 1.625 2.5 0 4 C-0.66 4 -1.32 4 -2 4 C-2 5.32 -2 6.64 -2 8 C-2.99 7.67 -3.98 7.34 -5 7 C-5.33 6.01 -5.66 5.02 -6 4 C-3.1875 1.9375 -3.1875 1.9375 0 0 Z " fill="#2C2C2C" transform="translate(75,25)"/>
<path d="M0 0 C1.58246707 -0.08153933 3.16616273 -0.13943557 4.75 -0.1875 C6.07257813 -0.23970703 6.07257813 -0.23970703 7.421875 -0.29296875 C10 0 10 0 14 3 C9.71 3 5.42 3 1 3 C0.67 2.01 0.34 1.02 0 0 Z " fill="#403F40" transform="translate(92,99)"/>
<path d="M0 0 C0.99 0.33 1.98 0.66 3 1 C1.7508258 4.45925163 0.32472205 7.14693203 -2 10 C-2.66 9.67 -3.32 9.34 -4 9 C-2.80100302 5.9168649 -1.52299523 2.93720508 0 0 Z " fill="#313031" transform="translate(128,28)"/>
<path d="M0 0 C3.75376152 1.25125384 4.24073289 2.5652404 6 6 C6 6.66 6 7.32 6 8 C5.01 8.33 4.02 8.66 3 9 C0 3.375 0 3.375 0 0 Z " fill="#3A393A" transform="translate(54,86)"/>
<path d="M0 0 C0.99 0 1.98 0 3 0 C3 0.66 3 1.32 3 2 C4.32 1.67 5.64 1.34 7 1 C7 1.99 7 2.98 7 4 C5.35 4.33 3.7 4.66 2 5 C1.34 3.35 0.68 1.7 0 0 Z " fill="#272627" transform="translate(58,94)"/>
<path d="M0 0 C0.99 0.33 1.98 0.66 3 1 C1.3125 3.5 1.3125 3.5 -1 6 C-3.75 6.3125 -3.75 6.3125 -6 6 C-6 5.34 -6 4.68 -6 4 C-4.7934375 3.566875 -4.7934375 3.566875 -3.5625 3.125 C-0.8673532 2.26737432 -0.8673532 2.26737432 0 0 Z " fill="#DADADA" transform="translate(118,77)"/>
<path d="M0 0 C0.66 0.33 1.32 0.66 2 1 C1.125 5.75 1.125 5.75 0 8 C-0.99 8 -1.98 8 -3 8 C-2.37240135 5.07120629 -1.41377341 2.63904371 0 0 Z " fill="#333233" transform="translate(57,42)"/>
<path d="M0 0 C0.99 0.33 1.98 0.66 3 1 C2.34 1.66 1.68 2.32 1 3 C0.01 3 -0.98 3 -2 3 C-2 5.97 -2 8.94 -2 12 C-2.33 12 -2.66 12 -3 12 C-3.08090971 10.37581255 -3.13914995 8.75048255 -3.1875 7.125 C-3.22230469 6.22007813 -3.25710937 5.31515625 -3.29296875 4.3828125 C-3.19628906 3.59648438 -3.09960938 2.81015625 -3 2 C-2.01 1.34 -1.02 0.68 0 0 Z " fill="#434243" transform="translate(110,105)"/>
<path d="M0 0 C2.31 0.33 4.62 0.66 7 1 C6.01 1.33 5.02 1.66 4 2 C4 2.66 4 3.32 4 4 C1.69 3.67 -0.62 3.34 -3 3 C-2.01 2.67 -1.02 2.34 0 2 C0 1.34 0 0.68 0 0 Z " fill="#4C4C4C" transform="translate(108,28)"/>
<path d="M0 0 C2.97 0.495 2.97 0.495 6 1 C5.01 1.495 5.01 1.495 4 2 C4 2.66 4 3.32 4 4 C1.69 3.67 -0.62 3.34 -3 3 C-2.01 2.67 -1.02 2.34 0 2 C0 1.34 0 0.68 0 0 Z " fill="#464646" transform="translate(89,105)"/>
<path d="M0 0 C1.125 3.75 1.125 3.75 0 6 C-0.99 6 -1.98 6 -3 6 C-2.625 3.5625 -2.625 3.5625 -2 1 C-1.34 0.67 -0.68 0.34 0 0 Z " fill="#454445" transform="translate(71,53)"/>
</svg>
